<svg width="2820" height="1465" viewBox="0 0 2820 1465" fill="none" xmlns="http://www.w3.org/2000/svg">
<g clip-path="url(#clip0)">
<rect width="2820" height="1465" rx="20" fill="#1D2128"/>
<circle opacity="0.03" cx="2278.5" cy="1557.5" r="541.5" fill="white"/>
<circle opacity="0.03" cx="509.5" cy="-217.5" r="541.5" fill="white"/>
<path d="M1188.51 751.34C1188.69 751.984 1188.97 753.18 1188.97 754.192C1188.97 756.952 1187.03 758.056 1182.71 758.332V761H1204.15V758.332C1199.18 757.78 1198.07 755.112 1196.42 750.052L1179.77 698.164H1172.5L1155.66 750.236C1153.82 756.032 1152.17 757.872 1147.75 758.332V761H1166.33V758.332C1161.64 758.148 1159.62 757.504 1159.62 754.652C1159.62 753.732 1159.8 752.628 1160.17 751.34L1163.3 741.22H1185.38L1188.51 751.34ZM1168.82 723.372C1170.84 716.84 1172.77 712.056 1174.34 705.616H1174.71C1175.35 708.376 1177.56 715.276 1180.04 723.372L1184.27 737.356H1164.49L1168.82 723.372ZM1250.54 727.328C1250.54 719.508 1245.67 715.276 1238.68 715.276C1231.96 715.276 1226.99 718.956 1222.39 723.74C1222.3 720.428 1221.56 716.564 1221.01 715.184H1219.82L1208.78 718.68V720.98C1214.11 721.256 1215.49 722.452 1215.49 729.076V751.708C1215.49 756.86 1213.93 757.964 1209.05 758.424V761H1229.2V758.424C1223.96 757.964 1222.76 756.768 1222.76 752.352V727.88C1226.62 723.924 1230.3 721.164 1236.01 721.164C1240.79 721.164 1243.28 723.372 1243.28 728.984V752.352C1243.28 756.768 1242.08 757.964 1236.84 758.424V761H1256.52V758.424C1251.65 758.056 1250.54 757.044 1250.54 751.708V727.328ZM1303.14 761V758.424C1297.9 757.964 1296.7 756.768 1296.7 751.708V715.184H1295.51L1282.72 718.588V720.888C1288.05 721.164 1289.43 722.36 1289.43 728.984V751.708C1289.43 756.86 1287.87 757.964 1282.99 758.424V761H1303.14ZM1297.9 702.028C1297.9 698.9 1295.6 696.508 1292.47 696.508C1289.34 696.508 1287.04 698.9 1287.04 702.028C1287.04 705.156 1289.34 707.548 1292.47 707.548C1295.6 707.548 1297.9 705.156 1297.9 702.028ZM1346.79 722.084C1344.86 717.392 1341.09 715.276 1336.49 715.276C1330.42 715.276 1325.91 718.956 1321.4 723.188C1321.31 720.336 1320.66 716.932 1319.93 715.184H1318.73L1307.78 718.68V720.98C1313.12 721.256 1314.5 722.452 1314.5 729.076V751.708C1314.5 756.86 1312.94 757.964 1308.06 758.424V761H1327.75V758.424C1322.87 757.964 1321.77 756.768 1321.77 752.352V727.42C1325.63 723.924 1328.94 721.164 1334.1 721.164C1338.51 721.164 1340.26 723.372 1340.26 728.984V752.352C1340.26 756.768 1339.16 757.964 1334.28 758.424V761H1353.05V758.424C1348.54 758.056 1347.53 756.952 1347.53 752.352V726.592C1350.93 723.464 1354.34 721.164 1358.94 721.164C1363.35 721.164 1365.1 723.372 1365.1 728.984V752.352C1365.1 756.768 1364 757.964 1359.12 758.424V761H1378.35V758.424C1373.47 758.056 1372.37 757.044 1372.37 751.708V727.328C1372.37 719.508 1367.68 715.276 1361.33 715.276C1355.72 715.276 1350.93 718.312 1346.79 722.084ZM1421.42 739.564C1421.42 753.732 1417.19 757.504 1409.46 757.504C1405.78 757.504 1400.81 754.836 1397.87 751.248V727.328C1401.73 723.004 1405.87 720.612 1410.38 720.612C1418.2 720.612 1421.42 725.212 1421.42 739.564ZM1397.41 722.82C1397.22 719.232 1396.49 716.472 1396.03 715.184H1394.83L1383.88 718.68V720.98C1389.22 721.256 1390.6 722.452 1390.6 729.076V769.74C1390.6 774.892 1389.03 775.996 1384.16 776.456V779.032H1405.04V776.456C1399.43 776.088 1397.87 774.708 1397.87 769.832V755.664C1402.01 759.988 1406.61 761.46 1411.11 761.46C1423.07 761.46 1429.33 752.168 1429.33 737.816C1429.33 722.176 1421.88 715.276 1412.03 715.276C1407.07 715.276 1400.99 718.588 1397.41 722.82ZM1449.34 725.488C1449.25 720.704 1448.33 716.84 1447.69 715.184H1446.49L1435.54 718.68V720.98C1440.88 721.256 1442.26 722.452 1442.26 729.076V751.708C1442.26 756.86 1440.69 757.964 1435.82 758.424V761H1457.35V758.424C1451.18 757.964 1449.53 756.768 1449.53 751.708V735.792C1449.53 726.96 1452.47 723.464 1460.01 723.464C1461.21 723.464 1461.95 723.556 1462.5 723.74L1464.43 715.276C1463.79 715.092 1462.96 714.908 1462.13 714.908C1457.07 714.908 1452.65 719.784 1449.34 725.488ZM1510.83 739.012C1510.83 725.304 1503.74 715 1490.03 715C1477.52 715 1469.61 723.832 1469.61 738.552C1469.61 753.548 1477.52 762.104 1490.22 762.104C1502.27 762.104 1510.83 753.456 1510.83 739.012ZM1502.91 739.38C1502.91 751.432 1498.68 758.148 1490.4 758.148C1481.02 758.148 1477.52 751.708 1477.52 737.632C1477.52 726.04 1480.37 718.956 1490.03 718.956C1498.41 718.956 1502.91 725.12 1502.91 739.38ZM1540.49 761.46L1553.64 725.58C1555.39 720.888 1556.68 719.508 1560.36 718.956V716.38H1544.17V718.956C1548.58 719.14 1550.06 720.06 1550.06 721.992C1550.06 722.636 1549.78 723.648 1549.41 724.752L1542.14 745.36C1541.22 747.844 1539.84 751.984 1539.38 753.456H1539.02C1538.28 750.88 1536.9 746.832 1536.35 745.268L1528.9 724.752C1528.44 723.464 1528.25 722.728 1528.25 721.9C1528.25 720.06 1529.82 719.232 1534.14 718.956V716.38H1514.82V718.956C1518.41 719.508 1519.7 720.796 1521.54 725.58L1535.06 761.46H1540.49ZM1586.13 757.044C1576.1 757.044 1571.32 752.628 1571.13 738.828H1600.48V736.62C1600.48 722.82 1593.86 714.908 1582.63 714.908C1571.59 714.908 1563.41 723.556 1563.41 738.368C1563.41 753.272 1571.13 762.012 1583.92 762.012C1590.18 762.012 1595.33 759.344 1599.65 756.032L1598.18 753.456C1594.96 755.48 1590.09 757.044 1586.13 757.044ZM1582.45 718.772C1589.81 718.772 1592.85 723.28 1592.85 734.872H1571.23C1571.96 722.636 1575.92 718.772 1582.45 718.772ZM1637.72 754.376C1638.28 758.056 1639.56 761.092 1640.12 762.196H1640.94C1644.62 761.184 1648.58 760.08 1652.26 758.976V756.676C1646.46 756.4 1644.99 755.204 1644.99 748.58V694.392H1643.7L1630.73 696.968V699.452C1636.07 699.728 1637.72 700.832 1637.72 707.548V721.44C1633.77 717.208 1629.08 715.276 1624.66 715.276C1613.25 715.276 1606.35 724.936 1606.35 739.104C1606.35 755.664 1614.82 761.92 1623.92 761.92C1628.62 761.92 1634.23 758.792 1637.72 754.376ZM1614.26 738C1614.26 723.464 1618.68 719.968 1626.04 719.968C1630.18 719.968 1634.78 722.268 1637.72 725.856V749.684C1633.86 754.1 1629.72 757.32 1625.4 757.32C1617.76 757.32 1614.26 752.444 1614.26 738ZM1053.12 804.488C1053.12 799.612 1052.29 796.76 1051.37 795.38H1049.99L1032.61 797.772V802.096C1037.02 802.28 1038.22 803.2 1038.22 809.916V852.144C1038.22 857.388 1037.3 858.584 1032.88 858.584V863H1058.55V858.584C1054.04 858.584 1053.12 857.388 1053.12 852.236V828.04C1055.24 826.568 1057.81 825.096 1061.68 825.096C1065.27 825.096 1067.57 826.936 1067.57 832.548V852.236C1067.57 857.388 1066.65 858.584 1062.14 858.584V863H1087.81V858.584C1083.39 858.584 1082.47 857.388 1082.47 852.144V828.96C1082.47 819.116 1076.49 814.7 1068.95 814.7C1061.68 814.7 1057.17 817.92 1053.12 822.428V804.488ZM1139.87 838.436C1139.87 821.876 1129.94 814.608 1116.6 814.608C1101.42 814.608 1092.12 824.728 1092.12 839.54C1092.12 855.18 1100.68 864.196 1115.68 864.196C1128.56 864.196 1139.87 856.652 1139.87 838.436ZM1123.5 837.884C1123.5 852.604 1121.01 858.216 1116.14 858.216C1110.06 858.216 1108.5 852.696 1108.5 840C1108.5 824.728 1110.98 820.772 1115.95 820.772C1120.92 820.772 1123.5 824.82 1123.5 837.884ZM1192.76 822.98C1190.74 817.828 1186.04 814.7 1180.52 814.7C1173.81 814.7 1169.12 817.736 1165.16 822.704C1164.88 818.84 1163.04 815.528 1162.49 814.608H1161.11L1145.56 818.288V822.612C1149.98 822.796 1150.81 823.716 1150.81 830.432V852.236C1150.81 857.48 1149.89 858.584 1145.38 858.676V863H1170.68V858.676C1166.17 858.676 1165.71 857.48 1165.71 852.328V827.948C1167.83 826.568 1170.13 825.096 1173.62 825.096C1176.94 825.096 1179.05 826.936 1179.05 832.548V852.328C1179.05 857.48 1178.59 858.676 1174.08 858.676V863H1198.83V858.676C1194.51 858.584 1193.96 857.48 1193.96 852.328V827.856C1195.98 826.476 1198.37 825.096 1201.68 825.096C1205.09 825.096 1207.2 826.936 1207.2 832.548V852.328C1207.2 857.48 1206.65 858.676 1202.24 858.676V863H1227.44V858.676C1223.03 858.584 1222.11 857.48 1222.11 852.236V828.96C1222.11 819.116 1216.13 814.7 1208.68 814.7C1201.96 814.7 1196.72 817.92 1192.76 822.98ZM1258.73 855.64C1250.08 855.64 1246.86 851.5 1246.49 841.748H1274.09V837.424C1274.09 823.348 1268.39 814.608 1253.3 814.608C1239.5 814.608 1230.39 823.624 1230.39 839.264C1230.39 855.088 1238.86 864.196 1253.39 864.196C1261.95 864.196 1268.11 861.712 1273.27 856.56L1270.97 852.604C1266.83 854.72 1262.59 855.64 1258.73 855.64ZM1253.49 820.68C1257.81 820.68 1259.37 823.992 1259.37 835.032H1246.59C1247.23 823.992 1249.16 820.68 1253.49 820.68ZM1333.13 841.932C1334.14 838.344 1334.87 833.928 1334.97 832.64H1335.52C1335.52 833.376 1336.07 838.528 1337.27 842.024L1344.63 863.46H1357.05L1367.35 826.108C1368.55 821.692 1369.93 820.772 1373.79 820.312V815.804H1354.1V820.312C1357.69 820.312 1359.25 821.14 1359.25 823.532C1359.25 824.36 1359.16 825.004 1359.07 825.556L1355.11 842.944C1354.56 845.244 1354.1 849.292 1354.01 849.936H1353.46C1353.37 848.924 1352.81 845.52 1351.89 842.484L1343.43 815.804H1332.48L1325.77 842.392C1324.94 845.796 1324.57 849.292 1324.57 849.936H1324.02C1323.93 849.108 1323.47 845.704 1322.64 842.392L1318.41 825.648C1318.22 824.912 1318.13 824.268 1318.13 823.716C1318.13 821.6 1319.6 820.312 1323.19 820.312V815.804H1297.52V820.312C1300.83 820.772 1301.85 821.508 1303.41 826.568L1314.54 863.46H1327.05L1333.13 841.932ZM1424.77 838.436C1424.77 821.876 1414.83 814.608 1401.49 814.608C1386.31 814.608 1377.02 824.728 1377.02 839.54C1377.02 855.18 1385.57 864.196 1400.57 864.196C1413.45 864.196 1424.77 856.652 1424.77 838.436ZM1408.39 837.884C1408.39 852.604 1405.91 858.216 1401.03 858.216C1394.96 858.216 1393.39 852.696 1393.39 840C1393.39 824.728 1395.88 820.772 1400.85 820.772C1405.81 820.772 1408.39 824.82 1408.39 837.884ZM1450.51 826.66C1450.24 820.312 1448.03 815.712 1447.39 814.608H1446.01L1430.46 818.288V822.612C1434.87 822.796 1435.7 823.716 1435.7 830.432V852.144C1435.7 857.388 1434.78 858.584 1430.27 858.584V863H1457.78V858.584C1451.71 858.584 1450.61 857.388 1450.61 852.144V838.252C1450.61 831.536 1452.35 829.42 1459.25 829.42C1461.65 829.42 1462.93 829.696 1464.77 830.248L1467.53 815.252C1466.8 814.976 1465.42 814.608 1463.95 814.608C1458.89 814.608 1452.54 818.38 1450.51 826.66ZM1468.62 863H1494.29V858.584C1489.78 858.584 1488.86 857.388 1488.86 852.236V804.488C1488.86 798.6 1487.48 796.024 1487.12 795.38H1485.74L1468.35 797.772V802.096C1472.76 802.28 1473.96 803.2 1473.96 809.916V852.144C1473.96 857.388 1473.04 858.584 1468.62 858.584V863ZM1503.58 863H1522.17V858.584C1519.13 858.216 1517.2 857.756 1514.72 853.708L1502.85 834.48L1510.94 825.832C1514.26 822.244 1516.56 820.772 1520.24 820.312V815.804H1498.43V820.312C1501.28 820.312 1502.85 821.416 1502.85 822.98C1502.85 823.9 1502.3 824.912 1501.28 826.108L1489.6 839.172L1503.58 863ZM1542.55 864.196C1555.89 864.196 1563.35 858.584 1563.35 848.464C1563.35 839.724 1557.92 834.572 1548.72 832.548L1541.73 830.984C1538.41 830.248 1536.76 828.868 1536.76 826.016C1536.76 822.612 1539.06 821.048 1542.92 821.048C1547.52 821.048 1550.74 822.704 1551.48 828.04H1560.49V817.92C1558.01 816.816 1552.67 814.608 1544.12 814.608C1533.72 814.608 1525.07 819.852 1525.07 830.708C1525.07 838.804 1529.49 843.772 1537.31 845.428L1544.85 846.992C1548.9 847.82 1550.93 849.384 1550.93 852.88C1550.93 856.56 1547.98 858.216 1543.66 858.216C1538.97 858.216 1535.47 856.56 1534.73 850.028H1524.98V860.24C1527.65 861.62 1532.53 864.196 1542.55 864.196ZM1604.34 840.736C1604.34 853.248 1600.75 856.376 1595.51 856.376C1592.84 856.376 1590.36 855.64 1588.43 853.432V827.672C1590.82 825.372 1593.39 824.544 1596.15 824.544C1601.21 824.544 1604.34 828.04 1604.34 840.736ZM1587.87 822.428C1587.6 818.656 1585.67 815.344 1585.21 814.608H1583.83L1568.28 818.288V822.612C1572.69 822.796 1573.52 823.716 1573.52 830.432V870.176C1573.52 875.42 1572.6 876.616 1568.09 876.616V881.032H1593.95V876.616C1589.35 876.616 1588.43 875.42 1588.43 870.176V860.24C1590.82 863.092 1594.5 864.104 1598.27 864.104C1610.78 864.104 1620.17 857.02 1620.17 839.08C1620.17 822.336 1612.81 814.7 1601.67 814.7C1595.05 814.7 1590.17 818.288 1587.87 822.428ZM1666.99 848.832C1666.99 840.46 1667.36 832.824 1667.36 830.064C1667.36 819.3 1659.63 814.608 1648.96 814.608C1641.23 814.608 1633.6 816.908 1628.54 819.852V829.604H1639.58C1640.22 824.544 1641.51 821.14 1646.2 821.14C1650.71 821.14 1652.46 824.084 1652.46 830.984V835.216C1651.26 835.124 1648.78 835.032 1647.67 835.032C1633.23 835.032 1625.41 839.724 1625.41 850.58C1625.41 860.24 1631.94 864.196 1640.04 864.196C1647.4 864.196 1651.35 860.608 1652.82 857.204C1653.65 861.068 1657.06 863.552 1662.58 863.552C1666.99 863.552 1670.67 862.356 1672.7 861.068V856.928C1668.1 856.836 1666.99 855.732 1666.99 848.832ZM1652.27 840.552L1652 852.236C1650.43 854.076 1647.58 854.996 1645.65 854.996C1642.61 854.996 1640.68 853.432 1640.68 848.556C1640.68 843.22 1643.72 840.552 1649.05 840.552H1652.27ZM1716.48 818.38C1713.07 816.172 1708.47 814.7 1701.11 814.7C1688.14 814.7 1676.92 823.532 1676.92 840.184C1676.92 856.376 1687.22 864.196 1699.73 864.196C1706.82 864.196 1713.35 861.804 1717.58 856.744L1715.1 852.972C1711.33 855.088 1708.57 855.824 1704.61 855.824C1698.08 855.824 1692.28 851.592 1692.28 838.068C1692.28 823.9 1697.53 820.68 1701.21 820.68C1704.61 820.68 1705.16 823.072 1705.35 828.868H1716.48V818.38ZM1751.07 855.64C1742.43 855.64 1739.21 851.5 1738.84 841.748H1766.44V837.424C1766.44 823.348 1760.73 814.608 1745.65 814.608C1731.85 814.608 1722.74 823.624 1722.74 839.264C1722.74 855.088 1731.2 864.196 1745.74 864.196C1754.29 864.196 1760.46 861.712 1765.61 856.56L1763.31 852.604C1759.17 854.72 1754.94 855.64 1751.07 855.64ZM1745.83 820.68C1750.15 820.68 1751.72 823.992 1751.72 835.032H1738.93C1739.57 823.992 1741.51 820.68 1745.83 820.68ZM1236.5 953.224C1236.5 944.944 1236.87 937.216 1236.87 934.18C1236.87 923.6 1231.35 919 1221.42 919C1215.44 919 1208.63 921.392 1204.76 923.508V931.328H1209.46C1210.19 927.004 1212.58 923.048 1220.68 923.048C1227.67 923.048 1229.6 926.636 1229.6 934.732V939.056C1228.41 938.964 1226.94 938.964 1225.83 938.964C1211.76 938.964 1202.28 942.644 1202.28 953.5C1202.28 961.688 1208.08 966.288 1216.54 966.288C1223.16 966.288 1227.67 961.596 1229.51 957.916C1230.16 962.516 1231.44 965.552 1237.52 965.552C1239.63 965.552 1241.93 965.184 1243.31 964.724V962.056C1237.7 961.504 1236.5 960.032 1236.5 953.224ZM1229.14 954.144C1226.94 958.008 1223.16 961.596 1218.56 961.596C1212.86 961.596 1210.1 959.48 1210.1 952.856C1210.1 945.68 1214.79 942.736 1225.65 942.736C1227.03 942.736 1228.41 942.828 1229.42 942.92L1229.14 954.144ZM1277.25 939.24C1278.07 936.296 1278.9 933.352 1279.73 930.408C1279.82 930.408 1280.01 930.408 1280.1 930.408C1281.29 934.272 1282.4 938.044 1283.59 941.908L1290.86 965.46H1296.47L1306.87 929.58C1308.25 924.888 1309.35 923.508 1313.31 922.956V920.38H1297.85V922.956C1301.99 923.14 1303.01 924.244 1303.01 926.268C1303.01 927.096 1302.82 927.924 1302.64 928.752L1297.95 947.152C1297.39 949.452 1295.92 954.42 1295.37 956.352H1295C1294.54 954.696 1293.07 950.096 1292.06 947.06L1283.41 920.38H1278.53L1271.27 947.152C1270.44 950.188 1269.52 953.316 1268.69 956.352C1268.51 956.352 1268.41 956.352 1268.23 956.352C1267.31 953.224 1266.3 950.188 1265.38 947.06L1259.86 928.752C1259.49 927.464 1259.4 926.82 1259.4 926.084C1259.4 923.692 1261.7 923.14 1264.64 922.956V920.38H1246.06V922.956C1249.65 923.508 1251.03 924.888 1252.5 929.58L1264 965.46H1269.79L1277.25 939.24ZM1351.77 953.224C1351.77 944.944 1352.14 937.216 1352.14 934.18C1352.14 923.6 1346.62 919 1336.68 919C1330.7 919 1323.9 921.392 1320.03 923.508V931.328H1324.72C1325.46 927.004 1327.85 923.048 1335.95 923.048C1342.94 923.048 1344.87 926.636 1344.87 934.732V939.056C1343.68 938.964 1342.2 938.964 1341.1 938.964C1327.02 938.964 1317.55 942.644 1317.55 953.5C1317.55 961.688 1323.34 966.288 1331.81 966.288C1338.43 966.288 1342.94 961.596 1344.78 957.916C1345.42 962.516 1346.71 965.552 1352.78 965.552C1354.9 965.552 1357.2 965.184 1358.58 964.724V962.056C1352.97 961.504 1351.77 960.032 1351.77 953.224ZM1344.41 954.144C1342.2 958.008 1338.43 961.596 1333.83 961.596C1328.13 961.596 1325.37 959.48 1325.37 952.856C1325.37 945.68 1330.06 942.736 1340.92 942.736C1342.3 942.736 1343.68 942.828 1344.69 942.92L1344.41 954.144ZM1383.78 965V962.424C1378.53 961.964 1377.34 960.768 1377.34 955.708V919.184H1376.14L1363.35 922.588V924.888C1368.69 925.164 1370.07 926.36 1370.07 932.984V955.708C1370.07 960.86 1368.5 961.964 1363.63 962.424V965H1383.78ZM1378.53 906.028C1378.53 902.9 1376.23 900.508 1373.1 900.508C1369.98 900.508 1367.68 902.9 1367.68 906.028C1367.68 909.156 1369.98 911.548 1373.1 911.548C1376.23 911.548 1378.53 909.156 1378.53 906.028ZM1413.14 920.38H1402.29C1402.29 915.596 1402.56 910.168 1403.02 906.856L1399.44 907.684C1397.5 910.904 1396.4 915.964 1395.57 920.38L1389.41 922.404V924.888H1394.93V954.144C1394.93 963.16 1398.61 966.288 1405.51 966.288C1408.27 966.288 1411.21 965.552 1414.06 964.172L1413.42 961.228C1411.67 961.78 1410.11 962.056 1408.64 962.056C1403.58 962.056 1402.2 960.308 1402.2 952.948V924.888H1411.95L1413.14 920.38ZM1433.16 966.104C1444.3 966.104 1450.18 960.584 1450.18 951.2C1450.18 944.944 1445.95 940.804 1438.04 938.964L1432.61 937.676C1426.63 936.296 1424.79 934.088 1424.79 930.132C1424.79 925.624 1428.1 922.772 1433.81 922.772C1439.24 922.772 1442 925.164 1442.92 930.04H1447.79V922.22C1445.58 921.116 1441.35 919.092 1434.54 919.092C1425.25 919.092 1419 923.232 1419 932.064C1419 939.332 1423.69 943.012 1430.22 944.576L1435.65 945.864C1441.17 947.152 1444.02 949.084 1444.02 954.144C1444.02 960.124 1439.42 962.424 1433.99 962.424C1427.28 962.424 1424.33 960.032 1423.6 953.868H1418.54V962.424C1420.74 963.804 1425.16 966.104 1433.16 966.104ZM1484.63 984.504C1492.91 982.664 1497.33 977.052 1500.92 966.656L1513.8 929.58C1515.45 924.888 1516.93 923.416 1520.51 922.956V920.38H1504.32V922.956C1508.83 923.232 1510.21 924.152 1510.21 925.808C1510.21 926.36 1509.93 927.74 1509.57 928.752L1502.94 949.268C1501.29 954.328 1499.91 958.744 1499.45 960.308H1499.08C1498.53 957.272 1497.33 951.936 1495.67 947.336L1489.05 928.752C1488.68 927.648 1488.41 926.82 1488.41 926.084C1488.41 924.152 1489.88 923.232 1494.29 922.956V920.38H1474.97V922.956C1478.56 923.508 1480.03 924.98 1481.69 929.58L1489.05 949.636C1491.17 955.524 1492.55 960.584 1493.74 965.276L1497.24 964.724C1494.29 974.568 1489.33 976.776 1482.61 978.616L1484.63 984.504ZM1565.67 943.012C1565.67 929.304 1558.59 919 1544.88 919C1532.37 919 1524.46 927.832 1524.46 942.552C1524.46 957.548 1532.37 966.104 1545.07 966.104C1557.12 966.104 1565.67 957.456 1565.67 943.012ZM1557.76 943.38C1557.76 955.432 1553.53 962.148 1545.25 962.148C1535.87 962.148 1532.37 955.708 1532.37 941.632C1532.37 930.04 1535.22 922.956 1544.88 922.956C1553.25 922.956 1557.76 929.12 1557.76 943.38ZM1612.72 919.184H1611.07L1599.02 922.68V924.98C1604.08 925.164 1605.46 926.268 1605.46 933.076V953.592C1601.59 957.456 1598.46 960.308 1592.67 960.308C1587.88 960.308 1585.22 958.468 1585.22 952.58V919.184H1583.56L1571.51 922.68V924.98C1576.57 925.164 1577.95 926.268 1577.95 933.076V954.144C1577.95 962.332 1583.01 966.104 1590.09 966.104C1596.9 966.104 1601.41 962.332 1605.92 957.548C1606.28 960.584 1607.02 963.804 1607.94 966.196H1609.04L1619.44 963.068V960.768C1614.1 960.492 1612.72 959.296 1612.72 952.672V919.184Z" fill="#F3F6F9"/>
<path d="M1655.29 419.265C1652.03 407.291 1643.69 402.595 1631.69 402.676C1611.69 403.001 1603.85 415.477 1603.9 436.219C1603.86 457.179 1611.46 470.217 1633.57 470.013C1642.93 470.02 1649.65 467.791 1656.72 462.505L1651.97 452.489C1649.3 454.156 1646.84 455.41 1644.58 456.244C1640.96 457.667 1633.61 458.026 1629.75 456.555C1623.41 454.143 1622.93 447.346 1622.8 440.969L1622.92 430.33C1623.1 424.991 1623.48 420.599 1625.49 416.689C1626.92 414.142 1628.98 413.342 1631.81 413.308C1637.31 413.152 1638.77 416.859 1639.32 422.009C1639.57 424.218 1639.69 426.996 1639.69 430.33C1637.65 430.33 1632.68 430.33 1628.26 430.33L1628.28 440.969H1656.97C1657.07 434.268 1657.05 424.652 1655.29 419.265Z" fill="white"/>
<path d="M1593.39 459.382V468.394H1559.6V459.382L1566.6 458.128V416.697L1559.6 414.942V404.303H1581.12L1583.38 414.691C1587.47 406.851 1593.35 402.927 1601.03 402.927C1602.11 402.927 1602.99 403.049 1603.66 403.3L1601.41 421.576C1600.48 421.163 1599.57 420.824 1598.66 420.573C1597.73 420.322 1596.61 420.2 1595.27 420.2C1593.11 420.2 1591.15 420.492 1589.39 421.075C1587.64 421.657 1585.93 422.538 1584.26 423.704V457.877L1593.39 459.382Z" fill="white"/>
<path d="M1555 419.265C1551.74 407.291 1543.4 402.595 1531.4 402.676C1511.4 403.001 1503.56 415.477 1503.61 436.219C1503.57 457.179 1511.17 470.217 1533.28 470.013C1542.64 470.02 1549.36 467.791 1556.43 462.505L1551.67 452.489C1549 454.156 1546.55 455.41 1544.29 456.244C1540.67 457.667 1533.32 458.026 1529.45 456.555C1523.12 454.143 1522.64 447.346 1522.51 440.969L1522.63 430.33C1522.81 424.991 1523.19 420.599 1525.2 416.689C1526.63 414.142 1528.69 413.342 1531.52 413.308C1537.02 413.152 1538.48 416.859 1539.03 422.009C1539.28 424.218 1539.4 426.996 1539.4 430.33C1537.36 430.33 1532.39 430.33 1527.97 430.33L1527.98 440.969H1556.68C1556.78 434.268 1556.76 424.652 1555 419.265Z" fill="white"/>
<path d="M1462.84 410.944C1465.76 408.274 1468.64 406.227 1471.48 404.811C1474.31 403.395 1477.66 402.683 1481.5 402.683C1486.42 402.683 1490.14 404.167 1492.64 407.128C1495.14 410.09 1496.39 414.413 1496.39 420.085V458.135L1503.28 459.388V468.401H1478.62V425.96C1478.62 422.789 1478.18 420.512 1477.3 419.136C1476.43 417.761 1474.86 417.069 1472.61 417.069C1470.77 417.069 1469.04 417.402 1467.41 418.072C1465.78 418.743 1464.26 419.617 1462.84 420.702V458.128L1469.48 459.382V468.394H1438.18V459.382L1445.19 458.128V388.534L1438.18 386.779V376.77H1462.84V410.944Z" fill="white"/>
<path d="M1415.53 414.57V404.31H1438.94V414.949L1434.18 415.952L1420.29 468.402H1406.27L1399.26 442.739C1398.34 439.486 1397.54 436.227 1396.88 432.974C1396.21 429.722 1395.71 427.011 1395.38 424.836H1395.25C1395 427.004 1394.58 429.695 1394 432.907C1393.42 436.119 1392.67 439.398 1391.74 442.732L1385.11 468.395H1371.47L1357.45 415.823L1352.82 414.949V404.31H1380.61V414.576L1374.85 415.579L1378.6 432.73C1379.11 435.231 1379.59 437.908 1380.04 440.74C1380.5 443.579 1380.85 445.958 1381.11 447.876H1381.36C1381.53 445.958 1381.9 443.518 1382.48 440.55C1383.06 437.589 1383.69 434.729 1384.36 431.978L1391.49 404.317H1403.89L1411.4 431.727C1412.23 434.818 1412.88 437.86 1413.33 440.862C1413.79 443.864 1414.19 446.29 1414.52 448.12H1414.77C1414.94 446.283 1415.25 443.905 1415.71 440.984C1416.17 438.063 1416.7 435.272 1417.28 432.595L1421.16 415.444L1415.53 414.57Z" fill="white"/>
<path d="M1324.57 404.363L1324.49 414.629L1330.12 415.551L1322.66 441.403C1321.98 443.822 1321.36 446.194 1320.79 448.525C1320.23 450.856 1319.78 453.275 1319.43 455.776H1319.3C1318.99 453.187 1318.61 450.72 1318.17 448.383C1317.73 446.045 1317.18 443.619 1316.54 441.111L1309.6 415.524L1315.49 414.568L1315.56 404.302L1286.53 404.085L1286.44 414.724L1291.45 415.639L1308.32 468.339L1312.95 468.373C1312.26 470.203 1311.42 471.822 1310.41 473.239C1309.4 474.648 1308.11 475.915 1306.56 477.027C1305 478.138 1303.12 479.066 1300.91 479.798C1298.69 480.53 1296.03 481.14 1292.94 481.614L1296.98 494.035C1300.57 493.392 1303.83 492.565 1306.77 491.542C1309.69 490.518 1312.36 489.034 1314.75 487.096C1317.14 485.151 1319.27 482.685 1321.13 479.696C1322.98 476.708 1324.68 472.961 1326.22 468.468L1343.76 416.154L1348.77 415.192L1348.86 404.553L1324.57 404.363Z" fill="white"/>
<path d="M1282.47 458.128V420.079C1282.47 414.407 1281.22 410.083 1278.72 407.122C1276.22 404.161 1272.5 402.677 1267.58 402.677C1263.57 402.677 1260.11 403.429 1257.19 404.933C1254.27 406.438 1251.27 408.606 1248.18 411.439L1246.55 404.303H1224.27V414.942L1231.28 416.697V458.128L1224.27 459.382V468.395H1255.57V459.382L1248.93 458.128V420.702C1250.35 419.699 1251.89 418.845 1253.56 418.134C1255.23 417.429 1256.94 417.07 1258.69 417.07C1260.94 417.07 1262.5 417.761 1263.39 419.137C1264.27 420.512 1264.7 422.789 1264.7 425.961V468.395H1289.36V459.382L1282.47 458.128Z" fill="white"/>
<path d="M1218.69 459.056C1216.02 459.137 1214.35 458.188 1213.68 457.565C1213.01 456.942 1212.68 455.546 1212.68 453.37V423.71C1212.68 415.951 1210.74 410.503 1206.86 407.379C1202.97 404.248 1197.36 402.683 1190.02 402.683C1184.76 402.683 1179.99 403.333 1175.69 404.621C1171.39 405.915 1167.49 407.772 1163.99 410.191L1169 421.453C1171.92 420.037 1174.74 418.912 1177.45 418.072C1180.16 417.238 1183.1 416.818 1186.27 416.818C1189.85 416.818 1192.21 417.631 1193.34 419.258C1194.47 420.884 1195.03 423.452 1195.03 426.956V430.087V439.472V454.99C1194.03 455.912 1192.92 456.677 1191.71 457.308C1190.49 457.938 1188.61 458.405 1187.14 458.243C1183.57 457.856 1180.71 453.438 1180.26 449.481C1180.21 449.088 1179.67 443.924 1182.89 441.471C1184.64 440.136 1186.76 439.465 1190.6 439.465L1190.54 430.08C1180.5 430.127 1173.94 431.726 1169.5 434.891C1164.99 438.123 1162.73 443.321 1162.73 450.49C1162.73 453.913 1163.2 456.853 1164.11 459.313C1165.02 461.773 1166.3 463.799 1167.93 465.385C1169.55 466.971 1171.49 468.136 1173.75 468.888C1176 469.641 1178.46 470.013 1181.13 470.013C1183.22 470.013 1185.02 469.824 1186.51 469.451C1188.02 469.078 1189.37 468.577 1190.58 467.947C1191.78 467.323 1192.85 466.591 1193.77 465.758C1194.69 464.924 1195.61 464.05 1196.52 463.128C1197.44 465.798 1198.9 467.614 1200.9 468.577C1202.9 469.539 1205.36 470.013 1208.29 470.013C1210.7 470.013 1212.87 469.702 1214.79 469.071C1216.71 468.448 1217.58 467.797 1218.74 467.133L1218.69 459.056Z" fill="white"/>
<path d="M1507.67 509.948H1436.52V516.444H1507.67V509.948Z" fill="#6166DC"/>
<path d="M1995.77 967.198C1997.83 969.259 2001.17 969.259 2003.23 967.198C2005.29 965.137 2005.29 961.796 2003.23 959.735C2001.17 957.675 1997.83 957.675 1995.77 959.735C1993.71 961.796 1993.71 965.137 1995.77 967.198Z" fill="white"/>
<path d="M1963.43 999.535C1965.49 1001.6 1968.83 1001.6 1970.89 999.535C1972.95 997.474 1972.95 994.133 1970.89 992.072C1968.83 990.011 1965.49 990.011 1963.43 992.072C1961.37 994.133 1961.37 997.474 1963.43 999.535Z" fill="white"/>
<path d="M1931.09 1031.87C1933.15 1033.94 1936.49 1033.94 1938.55 1031.87C1940.61 1029.81 1940.61 1026.47 1938.55 1024.41C1936.49 1022.35 1933.15 1022.35 1931.09 1024.41C1929.03 1026.47 1929.03 1029.81 1931.09 1031.87Z" fill="white"/>
<path d="M1898.75 1064.21C1900.81 1066.27 1904.15 1066.27 1906.21 1064.21C1908.27 1062.15 1908.27 1058.81 1906.21 1056.75C1904.15 1054.69 1900.81 1054.69 1898.75 1056.75C1896.69 1058.81 1896.69 1062.15 1898.75 1064.21Z" fill="white"/>
<path d="M1866.41 1096.55C1868.47 1098.61 1871.81 1098.61 1873.87 1096.55C1875.93 1094.49 1875.93 1091.15 1873.87 1089.09C1871.81 1087.03 1868.47 1087.03 1866.41 1089.09C1864.35 1091.15 1864.35 1094.49 1866.41 1096.55Z" fill="white"/>
<path d="M1834.07 1128.89C1836.13 1130.95 1839.48 1130.95 1841.54 1128.89C1843.6 1126.83 1843.6 1123.49 1841.54 1121.43C1839.48 1119.37 1836.13 1119.37 1834.07 1121.43C1832.01 1123.49 1832.01 1126.83 1834.07 1128.89Z" fill="white"/>
<path d="M1801.73 1161.23C1803.79 1163.29 1807.14 1163.29 1809.2 1161.23C1811.26 1159.17 1811.26 1155.83 1809.2 1153.77C1807.14 1151.71 1803.79 1151.71 1801.73 1153.77C1799.67 1155.83 1799.67 1159.17 1801.73 1161.23Z" fill="white"/>
<path d="M2028.11 999.535C2030.17 1001.6 2033.51 1001.6 2035.57 999.535C2037.63 997.474 2037.63 994.133 2035.57 992.072C2033.51 990.011 2030.17 990.011 2028.11 992.072C2026.05 994.133 2026.05 997.474 2028.11 999.535Z" fill="white"/>
<path d="M1995.77 1031.87C1997.83 1033.94 2001.17 1033.94 2003.23 1031.87C2005.29 1029.81 2005.29 1026.47 2003.23 1024.41C2001.17 1022.35 1997.83 1022.35 1995.77 1024.41C1993.71 1026.47 1993.71 1029.81 1995.77 1031.87Z" fill="white"/>
<path d="M1963.43 1064.21C1965.49 1066.27 1968.83 1066.27 1970.89 1064.21C1972.95 1062.15 1972.95 1058.81 1970.89 1056.75C1968.83 1054.69 1965.49 1054.69 1963.43 1056.75C1961.37 1058.81 1961.37 1062.15 1963.43 1064.21Z" fill="white"/>
<path d="M1931.09 1096.55C1933.15 1098.61 1936.49 1098.61 1938.55 1096.55C1940.61 1094.49 1940.61 1091.15 1938.55 1089.09C1936.49 1087.03 1933.15 1087.03 1931.09 1089.09C1929.03 1091.15 1929.03 1094.49 1931.09 1096.55Z" fill="white"/>
<path d="M1898.75 1128.89C1900.81 1130.95 1904.15 1130.95 1906.21 1128.89C1908.27 1126.83 1908.27 1123.49 1906.21 1121.43C1904.15 1119.37 1900.81 1119.37 1898.75 1121.43C1896.69 1123.49 1896.69 1126.83 1898.75 1128.89Z" fill="white"/>
<path d="M1866.41 1161.23C1868.47 1163.29 1871.81 1163.29 1873.87 1161.23C1875.93 1159.17 1875.93 1155.83 1873.87 1153.77C1871.81 1151.71 1868.47 1151.71 1866.41 1153.77C1864.35 1155.83 1864.35 1159.17 1866.41 1161.23Z" fill="white"/>
<path d="M1834.07 1193.57C1836.13 1195.63 1839.48 1195.63 1841.54 1193.57C1843.6 1191.51 1843.6 1188.17 1841.54 1186.11C1839.48 1184.05 1836.13 1184.05 1834.07 1186.11C1832.01 1188.17 1832.01 1191.51 1834.07 1193.57Z" fill="white"/>
<path d="M2060.45 1031.87C2062.51 1033.94 2065.85 1033.94 2067.91 1031.87C2069.97 1029.81 2069.97 1026.47 2067.91 1024.41C2065.85 1022.35 2062.51 1022.35 2060.45 1024.41C2058.39 1026.47 2058.39 1029.81 2060.45 1031.87Z" fill="white"/>
<path d="M2028.11 1064.21C2030.17 1066.27 2033.51 1066.27 2035.57 1064.21C2037.63 1062.15 2037.63 1058.81 2035.57 1056.75C2033.51 1054.69 2030.17 1054.69 2028.11 1056.75C2026.05 1058.81 2026.05 1062.15 2028.11 1064.21Z" fill="white"/>
<path d="M1995.77 1096.55C1997.83 1098.61 2001.17 1098.61 2003.23 1096.55C2005.29 1094.49 2005.29 1091.15 2003.23 1089.09C2001.17 1087.03 1997.83 1087.03 1995.77 1089.09C1993.71 1091.15 1993.71 1094.49 1995.77 1096.55Z" fill="white"/>
<path d="M1963.43 1128.89C1965.49 1130.95 1968.83 1130.95 1970.89 1128.89C1972.95 1126.83 1972.95 1123.49 1970.89 1121.43C1968.83 1119.37 1965.49 1119.37 1963.43 1121.43C1961.37 1123.49 1961.37 1126.83 1963.43 1128.89Z" fill="white"/>
<path d="M1931.09 1161.23C1933.15 1163.29 1936.49 1163.29 1938.55 1161.23C1940.61 1159.17 1940.61 1155.83 1938.55 1153.77C1936.49 1151.71 1933.15 1151.71 1931.09 1153.77C1929.03 1155.83 1929.03 1159.17 1931.09 1161.23Z" fill="white"/>
<path d="M1898.75 1193.57C1900.81 1195.63 1904.15 1195.63 1906.21 1193.57C1908.27 1191.51 1908.27 1188.17 1906.21 1186.11C1904.15 1184.05 1900.81 1184.05 1898.75 1186.11C1896.69 1188.17 1896.69 1191.51 1898.75 1193.57Z" fill="white"/>
<path d="M1866.41 1225.91C1868.47 1227.97 1871.81 1227.97 1873.87 1225.91C1875.93 1223.85 1875.93 1220.51 1873.87 1218.45C1871.81 1216.39 1868.47 1216.39 1866.41 1218.45C1864.35 1220.51 1864.35 1223.85 1866.41 1225.91Z" fill="white"/>
<path d="M2092.79 1064.21C2094.85 1066.27 2098.19 1066.27 2100.25 1064.21C2102.31 1062.15 2102.31 1058.81 2100.25 1056.75C2098.19 1054.69 2094.85 1054.69 2092.79 1056.75C2090.73 1058.81 2090.73 1062.15 2092.79 1064.21Z" fill="white"/>
<path d="M2060.45 1096.55C2062.51 1098.61 2065.85 1098.61 2067.91 1096.55C2069.97 1094.49 2069.97 1091.15 2067.91 1089.09C2065.85 1087.03 2062.51 1087.03 2060.45 1089.09C2058.39 1091.15 2058.39 1094.49 2060.45 1096.55Z" fill="white"/>
<path d="M2028.11 1128.89C2030.17 1130.95 2033.51 1130.95 2035.57 1128.89C2037.63 1126.83 2037.63 1123.49 2035.57 1121.43C2033.51 1119.37 2030.17 1119.37 2028.11 1121.43C2026.05 1123.49 2026.05 1126.83 2028.11 1128.89Z" fill="white"/>
<path d="M1995.77 1161.23C1997.83 1163.29 2001.17 1163.29 2003.23 1161.23C2005.29 1159.17 2005.29 1155.83 2003.23 1153.77C2001.17 1151.71 1997.83 1151.71 1995.77 1153.77C1993.71 1155.83 1993.71 1159.17 1995.77 1161.23Z" fill="white"/>
<path d="M1963.43 1193.57C1965.49 1195.63 1968.83 1195.63 1970.89 1193.57C1972.95 1191.51 1972.95 1188.17 1970.89 1186.11C1968.83 1184.05 1965.49 1184.05 1963.43 1186.11C1961.37 1188.17 1961.37 1191.51 1963.43 1193.57Z" fill="white"/>
<path d="M1931.09 1225.91C1933.15 1227.97 1936.49 1227.97 1938.55 1225.91C1940.61 1223.85 1940.61 1220.51 1938.55 1218.45C1936.49 1216.39 1933.15 1216.39 1931.09 1218.45C1929.03 1220.51 1929.03 1223.85 1931.09 1225.91Z" fill="white"/>
<path d="M1898.75 1258.25C1900.81 1260.31 1904.15 1260.31 1906.21 1258.25C1908.27 1256.19 1908.27 1252.85 1906.21 1250.79C1904.15 1248.73 1900.81 1248.73 1898.75 1250.79C1896.69 1252.85 1896.69 1256.19 1898.75 1258.25Z" fill="white"/>
<path d="M2125.13 1096.55C2127.19 1098.61 2130.53 1098.61 2132.59 1096.55C2134.65 1094.49 2134.65 1091.15 2132.59 1089.09C2130.53 1087.03 2127.19 1087.03 2125.13 1089.09C2123.07 1091.15 2123.07 1094.49 2125.13 1096.55Z" fill="white"/>
<path d="M2092.79 1128.89C2094.85 1130.95 2098.19 1130.95 2100.25 1128.89C2102.31 1126.83 2102.31 1123.49 2100.25 1121.43C2098.19 1119.37 2094.85 1119.37 2092.79 1121.43C2090.73 1123.49 2090.73 1126.83 2092.79 1128.89Z" fill="white"/>
<path d="M2060.45 1161.23C2062.51 1163.29 2065.85 1163.29 2067.91 1161.23C2069.97 1159.17 2069.97 1155.83 2067.91 1153.77C2065.85 1151.71 2062.51 1151.71 2060.45 1153.77C2058.39 1155.83 2058.39 1159.17 2060.45 1161.23Z" fill="white"/>
<path d="M2028.11 1193.57C2030.17 1195.63 2033.51 1195.63 2035.57 1193.57C2037.63 1191.51 2037.63 1188.17 2035.57 1186.11C2033.51 1184.05 2030.17 1184.05 2028.11 1186.11C2026.05 1188.17 2026.05 1191.51 2028.11 1193.57Z" fill="white"/>
<path d="M1995.77 1225.91C1997.83 1227.97 2001.17 1227.97 2003.23 1225.91C2005.29 1223.85 2005.29 1220.51 2003.23 1218.45C2001.17 1216.39 1997.83 1216.39 1995.77 1218.45C1993.71 1220.51 1993.71 1223.85 1995.77 1225.91Z" fill="white"/>
<path d="M1963.43 1258.25C1965.49 1260.31 1968.83 1260.31 1970.89 1258.25C1972.95 1256.19 1972.95 1252.85 1970.89 1250.79C1968.83 1248.73 1965.49 1248.73 1963.43 1250.79C1961.37 1252.85 1961.37 1256.19 1963.43 1258.25Z" fill="white"/>
<path d="M1931.09 1290.59C1933.15 1292.65 1936.49 1292.65 1938.55 1290.59C1940.61 1288.53 1940.61 1285.19 1938.55 1283.13C1936.49 1281.07 1933.15 1281.07 1931.09 1283.13C1929.03 1285.19 1929.03 1288.53 1931.09 1290.59Z" fill="white"/>
<path d="M2157.47 1128.89C2159.53 1130.95 2162.87 1130.95 2164.93 1128.89C2166.99 1126.83 2166.99 1123.49 2164.93 1121.43C2162.87 1119.37 2159.53 1119.37 2157.47 1121.43C2155.4 1123.49 2155.4 1126.83 2157.47 1128.89Z" fill="white"/>
<path d="M2125.13 1161.23C2127.19 1163.29 2130.53 1163.29 2132.59 1161.23C2134.65 1159.17 2134.65 1155.83 2132.59 1153.77C2130.53 1151.71 2127.19 1151.71 2125.13 1153.77C2123.07 1155.83 2123.07 1159.17 2125.13 1161.23Z" fill="white"/>
<path d="M2092.79 1193.57C2094.85 1195.63 2098.19 1195.63 2100.25 1193.57C2102.31 1191.51 2102.31 1188.17 2100.25 1186.11C2098.19 1184.05 2094.85 1184.05 2092.79 1186.11C2090.73 1188.17 2090.73 1191.51 2092.79 1193.57Z" fill="white"/>
<path d="M2060.45 1225.91C2062.51 1227.97 2065.85 1227.97 2067.91 1225.91C2069.97 1223.85 2069.97 1220.51 2067.91 1218.45C2065.85 1216.39 2062.51 1216.39 2060.45 1218.45C2058.39 1220.51 2058.39 1223.85 2060.45 1225.91Z" fill="white"/>
<path d="M2028.11 1258.25C2030.17 1260.31 2033.51 1260.31 2035.57 1258.25C2037.63 1256.19 2037.63 1252.85 2035.57 1250.79C2033.51 1248.73 2030.17 1248.73 2028.11 1250.79C2026.05 1252.85 2026.05 1256.19 2028.11 1258.25Z" fill="white"/>
<path d="M1995.77 1290.59C1997.83 1292.65 2001.17 1292.65 2003.23 1290.59C2005.29 1288.53 2005.29 1285.19 2003.23 1283.13C2001.17 1281.07 1997.83 1281.07 1995.77 1283.13C1993.71 1285.19 1993.71 1288.53 1995.77 1290.59Z" fill="white"/>
<path d="M1963.43 1322.93C1965.49 1324.99 1968.83 1324.99 1970.89 1322.93C1972.95 1320.87 1972.95 1317.53 1970.89 1315.47C1968.83 1313.41 1965.49 1313.41 1963.43 1315.47C1961.37 1317.53 1961.37 1320.87 1963.43 1322.93Z" fill="white"/>
<path d="M2189.81 1161.23C2191.87 1163.29 2195.21 1163.29 2197.27 1161.23C2199.33 1159.17 2199.33 1155.83 2197.27 1153.77C2195.21 1151.71 2191.87 1151.71 2189.81 1153.77C2187.74 1155.83 2187.74 1159.17 2189.81 1161.23Z" fill="white"/>
<path d="M2157.47 1193.57C2159.53 1195.63 2162.87 1195.63 2164.93 1193.57C2166.99 1191.51 2166.99 1188.17 2164.93 1186.11C2162.87 1184.05 2159.53 1184.05 2157.47 1186.11C2155.4 1188.17 2155.4 1191.51 2157.47 1193.57Z" fill="white"/>
<path d="M2125.13 1225.91C2127.19 1227.97 2130.53 1227.97 2132.59 1225.91C2134.65 1223.85 2134.65 1220.51 2132.59 1218.45C2130.53 1216.39 2127.19 1216.39 2125.13 1218.45C2123.07 1220.51 2123.07 1223.85 2125.13 1225.91Z" fill="white"/>
<path d="M2092.79 1258.25C2094.85 1260.31 2098.19 1260.31 2100.25 1258.25C2102.31 1256.19 2102.31 1252.85 2100.25 1250.79C2098.19 1248.73 2094.85 1248.73 2092.79 1250.79C2090.73 1252.85 2090.73 1256.19 2092.79 1258.25Z" fill="white"/>
<path d="M2060.45 1290.59C2062.51 1292.65 2065.85 1292.65 2067.91 1290.59C2069.97 1288.53 2069.97 1285.19 2067.91 1283.13C2065.85 1281.07 2062.51 1281.07 2060.45 1283.13C2058.39 1285.19 2058.39 1288.53 2060.45 1290.59Z" fill="white"/>
<path d="M2028.11 1322.93C2030.17 1324.99 2033.51 1324.99 2035.57 1322.93C2037.63 1320.87 2037.63 1317.53 2035.57 1315.47C2033.51 1313.41 2030.17 1313.41 2028.11 1315.47C2026.05 1317.53 2026.05 1320.87 2028.11 1322.93Z" fill="white"/>
<path d="M1995.77 1355.27C1997.83 1357.33 2001.17 1357.33 2003.23 1355.27C2005.29 1353.21 2005.29 1349.87 2003.23 1347.81C2001.17 1345.75 1997.83 1345.75 1995.77 1347.81C1993.71 1349.87 1993.71 1353.21 1995.77 1355.27Z" fill="white"/>
<path d="M502.43 9.53525C504.491 11.5961 507.832 11.5961 509.893 9.53524C511.954 7.47441 511.954 4.13313 509.893 2.07229C507.832 0.0114583 504.491 0.0114588 502.43 2.0723C500.369 4.13313 500.369 7.47441 502.43 9.53525Z" fill="white"/>
<path d="M470.091 41.8746C472.152 43.9354 475.493 43.9354 477.554 41.8746C479.615 39.8138 479.615 36.4725 477.554 34.4117C475.493 32.3508 472.152 32.3508 470.091 34.4117C468.03 36.4725 468.03 39.8138 470.091 41.8746Z" fill="white"/>
<path d="M437.75 74.2139C439.811 76.2748 443.152 76.2748 445.213 74.214C447.274 72.1531 447.274 68.8118 445.213 66.751C443.152 64.6902 439.811 64.6902 437.75 66.751C435.689 68.8118 435.689 72.1531 437.75 74.2139Z" fill="white"/>
<path d="M405.411 106.553C407.471 108.614 410.813 108.614 412.874 106.553C414.934 104.492 414.934 101.151 412.874 99.0904C410.813 97.0295 407.471 97.0295 405.411 99.0904C403.35 101.151 403.35 104.492 405.411 106.553Z" fill="white"/>
<path d="M373.073 138.892C375.134 140.953 378.475 140.953 380.536 138.892C382.597 136.831 382.597 133.49 380.536 131.429C378.475 129.368 375.134 129.368 373.073 131.429C371.012 133.49 371.012 136.831 373.073 138.892Z" fill="white"/>
<path d="M340.733 171.233C342.794 173.294 346.135 173.294 348.196 171.233C350.257 169.172 350.257 165.831 348.196 163.77C346.135 161.709 342.794 161.709 340.733 163.77C338.673 165.831 338.673 169.172 340.733 171.233Z" fill="white"/>
<path d="M567.109 9.53524C569.17 11.5961 572.511 11.5961 574.572 9.53525C576.633 7.47441 576.633 4.13313 574.572 2.0723C572.511 0.0114588 569.17 0.0114583 567.109 2.07229C565.048 4.13313 565.048 7.47441 567.109 9.53524Z" fill="white"/>
<path d="M534.77 41.8746C536.83 43.9354 540.172 43.9354 542.232 41.8746C544.293 39.8138 544.293 36.4725 542.232 34.4117C540.172 32.3508 536.83 32.3508 534.77 34.4117C532.709 36.4725 532.709 39.8138 534.77 41.8746Z" fill="white"/>
<path d="M502.43 74.214C504.491 76.2748 507.832 76.2748 509.893 74.214C511.954 72.1531 511.954 68.8118 509.893 66.751C507.832 64.6902 504.491 64.6902 502.43 66.751C500.369 68.8118 500.369 72.1531 502.43 74.214Z" fill="white"/>
<path d="M470.091 106.553C472.152 108.614 475.493 108.614 477.554 106.553C479.615 104.492 479.615 101.151 477.554 99.0904C475.493 97.0295 472.152 97.0295 470.091 99.0904C468.03 101.151 468.03 104.492 470.091 106.553Z" fill="white"/>
<path d="M437.75 138.892C439.811 140.953 443.152 140.953 445.213 138.892C447.274 136.831 447.274 133.49 445.213 131.429C443.152 129.368 439.811 129.368 437.75 131.429C435.689 133.49 435.689 136.831 437.75 138.892Z" fill="white"/>
<path d="M405.411 171.233C407.471 173.294 410.813 173.294 412.874 171.233C414.934 169.172 414.934 165.831 412.874 163.77C410.813 161.709 407.471 161.709 405.411 163.77C403.35 165.831 403.35 169.172 405.411 171.233Z" fill="white"/>
<path d="M373.073 203.571C375.134 205.632 378.475 205.632 380.536 203.571C382.597 201.51 382.597 198.169 380.536 196.108C378.475 194.047 375.134 194.047 373.073 196.108C371.012 198.169 371.012 201.51 373.073 203.571Z" fill="white"/>
<path d="M599.448 41.8746C601.509 43.9354 604.85 43.9354 606.911 41.8746C608.972 39.8138 608.972 36.4725 606.911 34.4117C604.85 32.3508 601.509 32.3508 599.448 34.4117C597.387 36.4725 597.387 39.8138 599.448 41.8746Z" fill="white"/>
<path d="M567.109 74.214C569.17 76.2748 572.511 76.2748 574.572 74.214C576.633 72.1531 576.633 68.8118 574.572 66.751C572.511 64.6902 569.17 64.6902 567.109 66.751C565.048 68.8118 565.048 72.1531 567.109 74.214Z" fill="white"/>
<path d="M534.77 106.553C536.83 108.614 540.172 108.614 542.232 106.553C544.293 104.492 544.293 101.151 542.232 99.0904C540.172 97.0295 536.83 97.0295 534.77 99.0904C532.709 101.151 532.709 104.492 534.77 106.553Z" fill="white"/>
<path d="M502.43 138.892C504.491 140.953 507.832 140.953 509.893 138.892C511.954 136.831 511.954 133.49 509.893 131.429C507.832 129.368 504.491 129.368 502.43 131.429C500.369 133.49 500.369 136.831 502.43 138.892Z" fill="white"/>
<path d="M470.091 171.233C472.152 173.294 475.493 173.294 477.554 171.233C479.615 169.172 479.615 165.831 477.554 163.77C475.493 161.709 472.152 161.709 470.091 163.77C468.03 165.831 468.03 169.172 470.091 171.233Z" fill="white"/>
<path d="M437.75 203.571C439.811 205.632 443.152 205.632 445.213 203.571C447.274 201.51 447.274 198.169 445.213 196.108C443.152 194.047 439.811 194.047 437.75 196.108C435.689 198.169 435.689 201.51 437.75 203.571Z" fill="white"/>
<path d="M405.411 235.912C407.471 237.973 410.813 237.973 412.874 235.912C414.934 233.851 414.934 230.51 412.874 228.449C410.813 226.388 407.471 226.388 405.411 228.449C403.35 230.51 403.35 233.851 405.411 235.912Z" fill="white"/>
<path d="M631.789 74.214C633.85 76.2748 637.191 76.2748 639.252 74.2139C641.313 72.1531 641.313 68.8118 639.252 66.751C637.191 64.6902 633.85 64.6902 631.789 66.751C629.728 68.8118 629.728 72.1531 631.789 74.214Z" fill="white"/>
<path d="M599.448 106.553C601.509 108.614 604.85 108.614 606.911 106.553C608.972 104.492 608.972 101.151 606.911 99.0904C604.85 97.0295 601.509 97.0295 599.448 99.0904C597.387 101.151 597.387 104.492 599.448 106.553Z" fill="white"/>
<path d="M567.109 138.892C569.17 140.953 572.511 140.953 574.572 138.892C576.633 136.831 576.633 133.49 574.572 131.429C572.511 129.368 569.17 129.368 567.109 131.429C565.048 133.49 565.048 136.831 567.109 138.892Z" fill="white"/>
<path d="M534.77 171.233C536.83 173.294 540.172 173.294 542.232 171.233C544.293 169.172 544.293 165.831 542.232 163.77C540.172 161.709 536.83 161.709 534.77 163.77C532.709 165.831 532.709 169.172 534.77 171.233Z" fill="white"/>
<path d="M502.43 203.571C504.491 205.632 507.832 205.632 509.893 203.571C511.954 201.51 511.954 198.169 509.893 196.108C507.832 194.047 504.491 194.047 502.43 196.108C500.369 198.169 500.369 201.51 502.43 203.571Z" fill="white"/>
<path d="M470.091 235.912C472.152 237.973 475.493 237.973 477.554 235.912C479.615 233.851 479.615 230.51 477.554 228.449C475.493 226.388 472.152 226.388 470.091 228.449C468.03 230.51 468.03 233.851 470.091 235.912Z" fill="white"/>
<path d="M437.75 268.25C439.811 270.311 443.152 270.311 445.213 268.25C447.274 266.189 447.274 262.848 445.213 260.787C443.152 258.726 439.811 258.726 437.75 260.787C435.689 262.848 435.689 266.189 437.75 268.25Z" fill="white"/>
<path d="M664.128 106.553C666.189 108.614 669.531 108.614 671.591 106.553C673.652 104.492 673.652 101.151 671.591 99.0904C669.531 97.0295 666.189 97.0295 664.128 99.0904C662.068 101.151 662.068 104.492 664.128 106.553Z" fill="white"/>
<path d="M631.789 138.892C633.85 140.953 637.191 140.953 639.252 138.892C641.313 136.831 641.313 133.49 639.252 131.429C637.191 129.368 633.85 129.368 631.789 131.429C629.728 133.49 629.728 136.831 631.789 138.892Z" fill="white"/>
<path d="M599.448 171.233C601.509 173.294 604.85 173.294 606.911 171.233C608.972 169.172 608.972 165.831 606.911 163.77C604.85 161.709 601.509 161.709 599.448 163.77C597.387 165.831 597.387 169.172 599.448 171.233Z" fill="white"/>
<path d="M567.109 203.571C569.17 205.632 572.511 205.632 574.572 203.571C576.633 201.51 576.633 198.169 574.572 196.108C572.511 194.047 569.17 194.047 567.109 196.108C565.048 198.169 565.048 201.51 567.109 203.571Z" fill="white"/>
<path d="M534.77 235.912C536.83 237.973 540.172 237.973 542.232 235.912C544.293 233.851 544.293 230.51 542.232 228.449C540.172 226.388 536.83 226.388 534.769 228.449C532.709 230.51 532.709 233.851 534.77 235.912Z" fill="white"/>
<path d="M502.43 268.25C504.491 270.311 507.832 270.311 509.893 268.25C511.954 266.189 511.954 262.848 509.893 260.787C507.832 258.726 504.491 258.726 502.43 260.787C500.369 262.848 500.369 266.189 502.43 268.25Z" fill="white"/>
<path d="M470.091 300.591C472.152 302.652 475.493 302.652 477.554 300.591C479.615 298.53 479.615 295.189 477.554 293.128C475.493 291.067 472.152 291.067 470.091 293.128C468.03 295.189 468.03 298.53 470.091 300.591Z" fill="white"/>
<path d="M696.466 138.892C698.527 140.953 701.868 140.953 703.929 138.892C705.99 136.831 705.99 133.49 703.929 131.429C701.868 129.368 698.527 129.368 696.466 131.429C694.405 133.49 694.405 136.831 696.466 138.892Z" fill="white"/>
<path d="M664.128 171.233C666.189 173.294 669.53 173.294 671.591 171.233C673.652 169.172 673.652 165.831 671.591 163.77C669.531 161.709 666.189 161.709 664.128 163.77C662.068 165.831 662.068 169.172 664.128 171.233Z" fill="white"/>
<path d="M631.789 203.571C633.85 205.632 637.191 205.632 639.252 203.571C641.313 201.51 641.313 198.169 639.252 196.108C637.191 194.047 633.85 194.047 631.789 196.108C629.728 198.169 629.728 201.51 631.789 203.571Z" fill="white"/>
<path d="M599.448 235.912C601.509 237.973 604.85 237.973 606.911 235.912C608.972 233.851 608.972 230.51 606.911 228.449C604.85 226.388 601.509 226.388 599.448 228.449C597.387 230.51 597.387 233.851 599.448 235.912Z" fill="white"/>
<path d="M567.109 268.25C569.17 270.311 572.511 270.311 574.572 268.25C576.633 266.189 576.633 262.848 574.572 260.787C572.511 258.726 569.17 258.726 567.109 260.787C565.048 262.848 565.048 266.189 567.109 268.25Z" fill="white"/>
<path d="M534.77 300.591C536.83 302.652 540.172 302.652 542.232 300.591C544.293 298.53 544.293 295.189 542.232 293.128C540.172 291.067 536.83 291.067 534.769 293.128C532.709 295.189 532.709 298.53 534.77 300.591Z" fill="white"/>
<path d="M502.43 332.93C504.491 334.991 507.832 334.991 509.893 332.93C511.954 330.869 511.954 327.528 509.893 325.467C507.832 323.406 504.491 323.406 502.43 325.467C500.369 327.528 500.369 330.869 502.43 332.93Z" fill="white"/>
<path d="M728.806 171.233C730.866 173.294 734.208 173.294 736.269 171.233C738.329 169.172 738.329 165.831 736.269 163.77C734.208 161.709 730.866 161.709 728.806 163.77C726.745 165.831 726.745 169.172 728.806 171.233Z" fill="white"/>
<path d="M696.466 203.571C698.527 205.632 701.868 205.632 703.929 203.571C705.99 201.51 705.99 198.169 703.929 196.108C701.868 194.047 698.527 194.047 696.466 196.108C694.405 198.169 694.405 201.51 696.466 203.571Z" fill="white"/>
<path d="M664.128 235.912C666.189 237.973 669.53 237.973 671.591 235.912C673.652 233.851 673.652 230.51 671.591 228.449C669.53 226.388 666.189 226.388 664.128 228.449C662.068 230.51 662.068 233.851 664.128 235.912Z" fill="white"/>
<path d="M631.789 268.25C633.85 270.311 637.191 270.311 639.252 268.25C641.313 266.189 641.313 262.848 639.252 260.787C637.191 258.726 633.85 258.726 631.789 260.787C629.728 262.848 629.728 266.189 631.789 268.25Z" fill="white"/>
<path d="M599.448 300.591C601.509 302.652 604.85 302.652 606.911 300.591C608.971 298.53 608.971 295.189 606.911 293.128C604.85 291.067 601.509 291.067 599.448 293.128C597.387 295.189 597.387 298.53 599.448 300.591Z" fill="white"/>
<path d="M567.109 332.93C569.17 334.991 572.511 334.991 574.572 332.93C576.633 330.869 576.633 327.528 574.572 325.467C572.511 323.406 569.17 323.406 567.109 325.467C565.048 327.528 565.048 330.869 567.109 332.93Z" fill="white"/>
<path d="M534.769 365.269C536.83 367.33 540.172 367.33 542.232 365.269C544.293 363.208 544.293 359.867 542.232 357.806C540.172 355.745 536.83 355.745 534.77 357.806C532.709 359.867 532.709 363.208 534.769 365.269Z" fill="white"/>
</g>
<defs>
<clipPath id="clip0">
<rect width="2820" height="1465" rx="20" fill="white"/>
</clipPath>
</defs>
</svg>
