<svg width="1083" height="1083" viewBox="0 0 1083 1083" fill="none" xmlns="http://www.w3.org/2000/svg">
<circle opacity="0.03" cx="541.5" cy="541.5" r="541.5" fill="white"/>
<path d="M819.77 48.1983C821.83 50.2592 825.172 50.2592 827.232 48.1983C829.293 46.1375 829.293 42.7962 827.232 40.7354C825.172 38.6745 821.83 38.6745 819.77 40.7354C817.709 42.7962 817.709 46.1375 819.77 48.1983Z" fill="white"/>
<path d="M787.431 80.5352C789.491 82.5961 792.833 82.5961 794.894 80.5352C796.954 78.4744 796.954 75.1331 794.894 73.0723C792.833 71.0115 789.491 71.0115 787.431 73.0723C785.37 75.1331 785.37 78.4744 787.431 80.5352Z" fill="white"/>
<path d="M755.091 112.874C757.152 114.935 760.493 114.935 762.554 112.874C764.615 110.813 764.615 107.472 762.554 105.411C760.493 103.35 757.152 103.35 755.091 105.411C753.03 107.472 753.03 110.813 755.091 112.874Z" fill="white"/>
<path d="M722.75 145.214C724.811 147.275 728.152 147.275 730.213 145.214C732.274 143.153 732.274 139.812 730.213 137.751C728.152 135.69 724.811 135.69 722.75 137.751C720.689 139.812 720.689 143.153 722.75 145.214Z" fill="white"/>
<path d="M690.411 177.553C692.472 179.614 695.813 179.614 697.874 177.553C699.935 175.492 699.935 172.151 697.874 170.09C695.813 168.029 692.472 168.029 690.411 170.09C688.35 172.151 688.35 175.492 690.411 177.553Z" fill="white"/>
<path d="M658.073 209.892C660.134 211.953 663.475 211.953 665.536 209.892C667.597 207.831 667.597 204.49 665.536 202.429C663.475 200.368 660.134 200.368 658.073 202.429C656.012 204.49 656.012 207.831 658.073 209.892Z" fill="white"/>
<path d="M625.733 242.233C627.794 244.294 631.135 244.294 633.196 242.233C635.257 240.173 635.257 236.831 633.196 234.771C631.135 232.71 627.794 232.71 625.733 234.771C623.673 236.831 623.673 240.173 625.733 242.233Z" fill="white"/>
<path d="M852.109 80.5352C854.17 82.5961 857.511 82.5961 859.572 80.5352C861.633 78.4744 861.633 75.1331 859.572 73.0723C857.511 71.0115 854.17 71.0115 852.109 73.0723C850.049 75.1331 850.049 78.4744 852.109 80.5352Z" fill="white"/>
<path d="M819.77 112.874C821.83 114.935 825.172 114.935 827.232 112.874C829.293 110.813 829.293 107.472 827.232 105.411C825.172 103.35 821.83 103.35 819.77 105.411C817.709 107.472 817.709 110.813 819.77 112.874Z" fill="white"/>
<path d="M787.431 145.214C789.491 147.275 792.833 147.275 794.894 145.214C796.954 143.153 796.954 139.812 794.894 137.751C792.833 135.69 789.491 135.69 787.431 137.751C785.37 139.812 785.37 143.153 787.431 145.214Z" fill="white"/>
<path d="M755.091 177.553C757.152 179.614 760.493 179.614 762.554 177.553C764.615 175.492 764.615 172.151 762.554 170.09C760.493 168.029 757.152 168.029 755.091 170.09C753.03 172.151 753.03 175.492 755.091 177.553Z" fill="white"/>
<path d="M722.75 209.892C724.811 211.953 728.152 211.953 730.213 209.892C732.274 207.831 732.274 204.49 730.213 202.429C728.152 200.368 724.811 200.368 722.75 202.429C720.689 204.49 720.689 207.831 722.75 209.892Z" fill="white"/>
<path d="M690.411 242.233C692.472 244.294 695.813 244.294 697.874 242.233C699.935 240.173 699.935 236.831 697.874 234.771C695.813 232.71 692.472 232.71 690.411 234.771C688.35 236.831 688.35 240.173 690.411 242.233Z" fill="white"/>
<path d="M658.073 274.57C660.134 276.631 663.475 276.631 665.536 274.57C667.597 272.51 667.597 269.168 665.536 267.107C663.475 265.047 660.134 265.047 658.073 267.107C656.012 269.168 656.012 272.51 658.073 274.57Z" fill="white"/>
<path d="M884.448 112.874C886.509 114.935 889.85 114.935 891.911 112.874C893.972 110.813 893.972 107.472 891.911 105.411C889.85 103.35 886.509 103.35 884.448 105.411C882.387 107.472 882.387 110.813 884.448 112.874Z" fill="white"/>
<path d="M852.109 145.214C854.17 147.275 857.511 147.275 859.572 145.214C861.633 143.153 861.633 139.812 859.572 137.751C857.511 135.69 854.17 135.69 852.109 137.751C850.049 139.812 850.049 143.153 852.109 145.214Z" fill="white"/>
<path d="M819.77 177.553C821.83 179.614 825.172 179.614 827.232 177.553C829.293 175.492 829.293 172.151 827.232 170.09C825.172 168.029 821.83 168.029 819.77 170.09C817.709 172.151 817.709 175.492 819.77 177.553Z" fill="white"/>
<path d="M787.431 209.892C789.491 211.953 792.833 211.953 794.894 209.892C796.954 207.831 796.954 204.49 794.894 202.429C792.833 200.368 789.491 200.368 787.431 202.429C785.37 204.49 785.37 207.831 787.431 209.892Z" fill="white"/>
<path d="M755.091 242.233C757.152 244.294 760.493 244.294 762.554 242.233C764.615 240.173 764.615 236.831 762.554 234.771C760.493 232.71 757.152 232.71 755.091 234.771C753.03 236.831 753.03 240.173 755.091 242.233Z" fill="white"/>
<path d="M722.75 274.57C724.811 276.631 728.152 276.631 730.213 274.57C732.274 272.51 732.274 269.168 730.213 267.107C728.152 265.047 724.811 265.047 722.75 267.107C720.689 269.168 720.689 272.51 722.75 274.57Z" fill="white"/>
<path d="M690.411 306.912C692.472 308.973 695.813 308.973 697.874 306.912C699.935 304.851 699.935 301.51 697.874 299.449C695.813 297.388 692.472 297.388 690.411 299.449C688.35 301.51 688.35 304.851 690.411 306.912Z" fill="white"/>
<path d="M916.789 145.214C918.85 147.275 922.191 147.275 924.252 145.214C926.313 143.153 926.313 139.812 924.252 137.751C922.191 135.69 918.85 135.69 916.789 137.751C914.728 139.812 914.728 143.153 916.789 145.214Z" fill="white"/>
<path d="M884.448 177.553C886.509 179.614 889.85 179.614 891.911 177.553C893.972 175.492 893.972 172.151 891.911 170.09C889.85 168.029 886.509 168.029 884.448 170.09C882.387 172.151 882.387 175.492 884.448 177.553Z" fill="white"/>
<path d="M852.109 209.892C854.17 211.953 857.511 211.953 859.572 209.892C861.633 207.831 861.633 204.49 859.572 202.429C857.511 200.368 854.17 200.368 852.109 202.429C850.049 204.49 850.049 207.831 852.109 209.892Z" fill="white"/>
<path d="M819.77 242.233C821.83 244.294 825.172 244.294 827.232 242.233C829.293 240.173 829.293 236.831 827.232 234.771C825.172 232.71 821.83 232.71 819.77 234.771C817.709 236.831 817.709 240.173 819.77 242.233Z" fill="white"/>
<path d="M787.431 274.57C789.491 276.631 792.833 276.631 794.894 274.57C796.954 272.51 796.954 269.168 794.894 267.107C792.833 265.047 789.491 265.047 787.431 267.107C785.37 269.168 785.37 272.51 787.431 274.57Z" fill="white"/>
<path d="M755.091 306.912C757.152 308.973 760.493 308.973 762.554 306.912C764.615 304.851 764.615 301.51 762.554 299.449C760.493 297.388 757.152 297.388 755.091 299.449C753.03 301.51 753.03 304.851 755.091 306.912Z" fill="white"/>
<path d="M722.75 339.25C724.811 341.311 728.152 341.311 730.213 339.25C732.274 337.189 732.274 333.848 730.213 331.787C728.152 329.726 724.811 329.726 722.75 331.787C720.689 333.848 720.689 337.189 722.75 339.25Z" fill="white"/>
<path d="M949.128 177.553C951.189 179.614 954.53 179.614 956.591 177.553C958.652 175.492 958.652 172.151 956.591 170.09C954.53 168.029 951.189 168.029 949.128 170.09C947.067 172.151 947.067 175.492 949.128 177.553Z" fill="white"/>
<path d="M916.789 209.892C918.85 211.953 922.191 211.953 924.252 209.892C926.313 207.831 926.313 204.49 924.252 202.429C922.191 200.368 918.85 200.368 916.789 202.429C914.728 204.49 914.728 207.831 916.789 209.892Z" fill="white"/>
<path d="M884.448 242.233C886.509 244.294 889.85 244.294 891.911 242.233C893.972 240.173 893.972 236.831 891.911 234.771C889.85 232.71 886.509 232.71 884.448 234.771C882.387 236.831 882.387 240.173 884.448 242.233Z" fill="white"/>
<path d="M852.109 274.57C854.17 276.631 857.511 276.631 859.572 274.57C861.633 272.51 861.633 269.168 859.572 267.107C857.511 265.047 854.17 265.047 852.109 267.107C850.049 269.168 850.049 272.51 852.109 274.57Z" fill="white"/>
<path d="M819.77 306.912C821.83 308.973 825.172 308.973 827.232 306.912C829.293 304.851 829.293 301.51 827.232 299.449C825.172 297.388 821.83 297.388 819.769 299.449C817.709 301.51 817.709 304.851 819.77 306.912Z" fill="white"/>
<path d="M787.431 339.25C789.491 341.311 792.833 341.311 794.894 339.25C796.954 337.189 796.954 333.848 794.894 331.787C792.833 329.726 789.491 329.726 787.431 331.787C785.37 333.848 785.37 337.189 787.431 339.25Z" fill="white"/>
<path d="M755.091 371.591C757.152 373.652 760.493 373.652 762.554 371.591C764.615 369.53 764.615 366.189 762.554 364.128C760.493 362.067 757.152 362.067 755.091 364.128C753.03 366.189 753.03 369.53 755.091 371.591Z" fill="white"/>
<path d="M981.466 209.893C983.527 211.954 986.868 211.953 988.929 209.893C990.99 207.832 990.99 204.491 988.929 202.43C986.868 200.369 983.527 200.369 981.466 202.43C979.405 204.491 979.405 207.832 981.466 209.893Z" fill="white"/>
<path d="M949.128 242.233C951.189 244.294 954.53 244.294 956.591 242.233C958.652 240.173 958.652 236.831 956.591 234.771C954.53 232.71 951.189 232.71 949.128 234.771C947.067 236.831 947.067 240.173 949.128 242.233Z" fill="white"/>
<path d="M916.789 274.57C918.85 276.631 922.191 276.631 924.252 274.57C926.313 272.51 926.313 269.168 924.252 267.107C922.191 265.047 918.85 265.047 916.789 267.107C914.728 269.168 914.728 272.51 916.789 274.57Z" fill="white"/>
<path d="M884.448 306.912C886.509 308.973 889.85 308.973 891.911 306.912C893.972 304.851 893.972 301.51 891.911 299.449C889.85 297.388 886.509 297.388 884.448 299.449C882.387 301.51 882.387 304.851 884.448 306.912Z" fill="white"/>
<path d="M852.109 339.25C854.17 341.311 857.511 341.311 859.572 339.25C861.633 337.189 861.633 333.848 859.572 331.787C857.511 329.726 854.17 329.726 852.109 331.787C850.049 333.848 850.049 337.189 852.109 339.25Z" fill="white"/>
<path d="M819.77 371.591C821.83 373.652 825.172 373.652 827.232 371.591C829.293 369.53 829.293 366.189 827.232 364.128C825.172 362.067 821.83 362.067 819.769 364.128C817.709 366.189 817.709 369.53 819.77 371.591Z" fill="white"/>
<path d="M787.431 403.93C789.491 405.991 792.833 405.991 794.894 403.93C796.954 401.869 796.954 398.528 794.894 396.467C792.833 394.406 789.491 394.406 787.431 396.467C785.37 398.528 785.37 401.869 787.431 403.93Z" fill="white"/>
<path d="M1013.81 242.233C1015.87 244.294 1019.21 244.294 1021.27 242.233C1023.33 240.173 1023.33 236.831 1021.27 234.771C1019.21 232.71 1015.87 232.71 1013.81 234.771C1011.74 236.831 1011.74 240.173 1013.81 242.233Z" fill="white"/>
<path d="M981.466 274.57C983.527 276.631 986.868 276.631 988.929 274.57C990.99 272.51 990.99 269.168 988.929 267.107C986.868 265.047 983.527 265.047 981.466 267.107C979.405 269.168 979.405 272.51 981.466 274.57Z" fill="white"/>
<path d="M949.128 306.912C951.189 308.973 954.53 308.973 956.591 306.912C958.652 304.851 958.652 301.51 956.591 299.449C954.53 297.388 951.189 297.388 949.128 299.449C947.067 301.51 947.067 304.851 949.128 306.912Z" fill="white"/>
<path d="M916.789 339.25C918.85 341.311 922.191 341.311 924.252 339.25C926.313 337.189 926.313 333.848 924.252 331.787C922.191 329.726 918.85 329.726 916.789 331.787C914.728 333.848 914.728 337.189 916.789 339.25Z" fill="white"/>
<path d="M884.448 371.591C886.509 373.652 889.85 373.652 891.911 371.591C893.972 369.53 893.972 366.189 891.911 364.128C889.85 362.067 886.509 362.067 884.448 364.128C882.387 366.189 882.387 369.53 884.448 371.591Z" fill="white"/>
<path d="M852.109 403.93C854.17 405.991 857.511 405.991 859.572 403.93C861.633 401.869 861.633 398.528 859.572 396.467C857.511 394.406 854.17 394.406 852.109 396.467C850.049 398.528 850.049 401.869 852.109 403.93Z" fill="white"/>
<path d="M819.769 436.27C821.83 438.33 825.172 438.33 827.232 436.27C829.293 434.209 829.293 430.867 827.232 428.807C825.172 426.746 821.83 426.746 819.77 428.807C817.709 430.867 817.709 434.209 819.769 436.27Z" fill="white"/>
</svg>
