<svg width="32" height="32" viewBox="0 0 32 32" fill="none" xmlns="http://www.w3.org/2000/svg">
<path d="M13.772 11.1373C14.7696 9.82979 16.266 9 18.2114 9C20.88 9 23 11.0367 23 14.1044V22H19.0344V14.9594C19.0344 13.5261 18.1116 12.6209 16.9394 12.6209C15.4679 12.6209 14.4952 13.7021 14.4952 15.8143V22H10.5047V14.9594C10.5047 13.5261 9.58195 12.6209 8.3848 12.6209C6.93824 12.6209 5.9905 13.7021 5.9905 15.8143V22H2V9.37718H5.9905V10.5338C6.83848 9.57834 8.06057 9 9.68171 9C11.4276 9 12.924 9.75435 13.772 11.1373Z" fill="black"/>
<path d="M27.4867 17.0005C27.1608 16.9941 26.8369 17.0549 26.5342 17.1792C26.2315 17.3035 25.9561 17.4889 25.7243 17.7244C25.4925 17.9598 25.3091 18.2406 25.1847 18.5501C25.0604 18.8596 24.9977 19.1916 25.0004 19.5264C24.9944 19.8596 25.0553 20.1905 25.1792 20.4985C25.3031 20.8065 25.4874 21.085 25.7206 21.3167C25.9538 21.5484 26.231 21.7283 26.5348 21.8453C26.8387 21.9623 27.1627 22.0138 27.4867 21.9966C27.8122 22.0142 28.1377 21.9632 28.4432 21.8468C28.7487 21.7303 29.0278 21.5508 29.2632 21.3194C29.4986 21.088 29.6855 20.8095 29.8122 20.5012C29.9389 20.1928 30.0028 19.8611 29.9999 19.5264C29.9995 19.1902 29.9338 18.8574 29.8067 18.5475C29.6796 18.2376 29.4936 17.9569 29.2596 17.7217C29.0256 17.4865 28.7483 17.3016 28.4439 17.1778C28.1395 17.0539 27.8141 16.9937 27.4867 17.0005Z" fill="black"/>
</svg>
