<?xml version="1.0" encoding="UTF-8"?>
<svg width="82px" height="86px" viewBox="0 0 82 86" version="1.1" xmlns="http://www.w3.org/2000/svg" xmlns:xlink="http://www.w3.org/1999/xlink">
    <title>Fill 1</title>
    <g id="🖥--Desktop-Demos" stroke="none" stroke-width="1" fill="none" fill-rule="evenodd">
        <g id="Fill-1" transform="translate(-32.000000, -40.000000)" fill="#182C49">
            <path d="M92.9830581,82.4838553 C92.6534333,84.0785756 92.0110586,85.5897184 91.2501839,87.0236549 C90.4188093,88.5906409 89.4633098,90.1089046 88.2524354,91.4131647 C87.4083108,92.3223989 86.2326864,93.4253982 84.901812,93.4253982 C82.6660631,93.4253982 81.8905635,90.2974227 81.8613135,86.4839611 C80.9673139,88.0033491 79.8640645,89.6115618 78.5819401,91.012517 C77.6950655,92.0090767 76.628191,92.877459 75.5729415,93.3774254 C75.4278166,93.4460115 75.2583167,93.441514 75.1195668,93.3609348 C75.0756918,93.3350744 75.0381918,93.3013436 75.0048168,93.2638648 C75.0048168,93.2646144 74.9976918,93.2571187 74.9845668,93.2425019 C74.8938169,93.1364371 74.512817,92.6106104 74.3065671,91.0803535 C74.2645672,90.7681556 74.2330672,90.4544586 74.2109422,90.140012 C74.1355672,89.0572512 74.1738172,87.9696182 74.2776922,86.8902306 C74.3815671,85.8127168 74.586317,84.7490703 74.687567,83.6715565 C74.7175669,83.3548612 74.7479419,83.032544 74.7303169,82.7139748 C74.7126919,82.3946559 74.644817,82.1311804 74.526317,81.9246725 C74.3219421,81.6147234 73.9683173,81.5011628 73.5689425,81.5232752 C73.5153175,81.5262735 73.4684426,81.528897 73.4215676,81.5348936 C73.3383176,81.5457625 73.2599427,81.4921679 73.2404427,81.4104642 C73.2220677,81.3328832 73.2629427,81.2530535 73.3364426,81.2211966 C74.4258171,80.7500889 75.3209417,80.2913491 76.0956913,79.8884527 C76.7965659,79.5012973 77.9294404,78.974721 78.5099401,78.8592865 C78.5830651,78.8446698 78.65844,78.8611605 78.720315,78.9023871 C78.801315,78.9563564 78.8500649,79.0466802 78.8485649,79.1441249 C78.81894,80.8149271 78.5095651,82.699358 78.2328152,84.7082184 C78.2320652,84.7123411 78.2313152,84.7164638 78.2309402,84.7202116 C78.1023153,85.5964645 78.0198153,86.4794636 77.9954404,87.3650862 C77.9849404,87.7365005 77.9811904,88.1067904 77.9845654,88.4740821 C77.9871904,88.7731624 77.9920654,89.0561269 78.0651903,89.3390913 C78.5050651,89.0737419 78.8665649,88.4770804 79.1646898,88.0633151 C79.5006896,87.5967048 79.8130645,87.1139786 80.1464393,86.6451196 C80.740064,85.8093438 81.3389387,84.9754418 81.8988135,84.1160544 C81.9528134,82.9845712 82.0581884,81.8635822 82.2273133,80.8336665 C82.2434383,80.7343478 82.2858133,80.6417753 82.3491883,80.5623204 C82.4376882,80.4506337 82.5685631,80.3809233 82.7080631,80.3513151 C83.8281875,80.1129503 84.989562,79.8727116 86.1074364,79.6103604 C86.2086864,79.5867488 86.3133113,79.6249771 86.3755613,79.7081799 C86.4239363,79.7718938 86.4393113,79.8558462 86.4186863,79.9330524 C85.8153116,82.1990169 85.5276867,84.0204836 85.5276867,86.2148637 C85.5276867,87.3077437 85.6150617,88.4373529 85.9769365,89.4762635 C86.0995614,89.8274393 86.2559364,90.1714941 86.4693113,90.4776954 C86.5544362,90.5995013 86.6481862,90.7153106 86.7528111,90.8202511 C86.7963111,90.864476 86.8296861,90.8899615 86.8608111,90.9087009 C87.7094357,90.1283936 89.5098098,88.2240989 90.6378092,85.237793 C90.6719342,85.1470945 90.7030592,85.0661404 90.7349342,84.9844367 C90.7233092,84.8986104 90.7124342,84.8120345 90.6790592,84.7280822 C90.4206843,84.0823235 90.1420595,83.4451849 89.8439346,82.8170413 C89.6151847,82.3350647 89.3725599,81.8527133 89.2593099,81.3317589 C89.145685,80.8104296 89.17531,80.2347562 89.4629348,79.7857609 C89.7513097,79.3356413 90.2676844,79.0665439 90.7953092,78.9799681 C90.9066841,78.9616035 91.0195591,78.9511094 91.132809,78.9488607 C91.4478089,78.9424893 91.7639337,79.0017057 92.0429336,79.1456241 C92.5960583,79.4308373 92.9459331,80.0211274 93.0674331,80.6312813 C93.188558,81.2418099 93.109058,81.8740762 92.9830581,82.4838553 Z M70.429069,91.0661116 C69.1836946,91.5241018 68.1558201,91.9809676 67.2663206,92.3831145 C66.4604459,92.771769 65.1629466,93.2897252 64.5074469,93.3822976 C64.4249469,93.3939161 64.342072,93.371054 64.275322,93.3208325 C64.188322,93.2559943 64.1395721,93.1518034 64.1474471,93.0438646 C64.283947,91.1804218 64.7459468,89.0958543 65.1794466,86.8707416 C65.4993214,85.3007573 65.7865713,83.8233454 65.8004463,82.7559509 C65.8004463,82.9261044 65.3136965,83.3691031 65.2011966,83.5092736 C64.9994467,83.7603811 64.7965717,84.0111139 64.5963218,84.2633458 C64.232197,84.7224603 63.8613222,85.183074 63.5369474,85.6710472 C63.3434475,85.9626318 63.1540725,86.2553407 62.9680726,86.5491741 C61.5183233,89.0992274 60.7405737,91.1748 60.4161989,92.1458741 C60.3633239,92.3032848 60.3224489,92.4318368 60.2928239,92.5289068 C60.2534489,92.6578336 60.142449,92.7507809 60.0081991,92.7661472 C58.6071997,92.9276805 57.0955755,93.0734728 55.7470761,93.3856707 C55.6443262,93.4092823 55.5385762,93.3725532 55.4740763,93.2889756 C55.4129513,93.2102702 55.3987013,93.1038306 55.4410763,93.0135069 C55.953701,91.9060101 56.4577008,89.9263832 56.7430756,88.3013051 L57.8159501,82.2825945 C58.2633249,79.8093725 58.5618248,77.8432379 58.7695747,76.621431 C58.8891996,75.8471203 58.9784496,74.9824858 58.9784496,74.4461651 C58.9784496,73.9102191 58.8891996,73.522689 58.7995747,73.254716 C58.5906998,72.7483782 58.1437,72.5396216 57.7859501,72.5396216 C57.6700752,72.5396216 57.5632003,72.5486165 57.4709503,72.5621089 C57.3633253,72.5774752 57.2639504,72.505516 57.2459504,72.3983268 C57.2302004,72.3065039 57.2793254,72.2165549 57.3655753,72.1813249 C58.4155748,71.7518186 59.7168242,71.294578 60.8271987,70.781494 C61.7586982,70.2762806 62.9523226,69.6751217 63.5365724,69.5525662 C63.6430723,69.5304537 63.7533223,69.5544401 63.8425722,69.6170296 C63.9528222,69.6942358 64.0176971,69.8224131 64.0109471,69.956587 C63.9771971,70.6079675 63.8121972,71.7233347 63.5991973,72.8375776 C63.3903224,74.0889927 62.6455728,77.7832719 62.0489481,81.17997 L60.9456986,87.0491404 C62.0489481,84.9634486 63.9569472,82.6101587 65.6860713,81.0011964 C66.7296958,80.0181291 68.0710702,79.2142102 69.0546947,79.2142102 C69.8898193,79.2142102 70.3364441,79.8393555 70.3364441,80.7924398 C70.3364441,81.7755071 69.7701943,84.3682863 69.3831945,86.4236203 C69.1743196,87.615819 68.9650697,88.7180686 68.9650697,89.3136058 C68.9650697,89.671153 69.0246947,89.9691089 69.1443196,90.2070989 C69.3528195,90.5657705 69.7409444,90.714561 70.1879441,90.714561 C70.2479441,90.714561 70.3004441,90.714561 70.3529441,90.7104384 C70.446694,90.7036922 70.530694,90.7681556 70.547194,90.8607281 C70.563319,90.9484284 70.512694,91.0350043 70.429069,91.0661116 Z M100.432805,53.0323131 C97.8636807,50.4399088 94.9563072,48.1278454 91.8501837,46.1958164 C84.0355624,41.3348241 74.9594418,38.8874624 66.8230708,40.4881794 C62.8169477,41.2759824 59.0414495,43.046478 55.5487012,45.512579 C49.1283293,50.0460072 43.668332,56.9383472 39.515959,64.4562073 C35.2027111,72.2416657 32.2968375,80.6946203 32.0215876,88.6442355 C31.8865877,92.5379017 32.3793374,96.311261 33.6528368,99.8252676 C37.511585,110.505584 48.5377046,118.823615 61.2483235,123.039598 C73.9435673,127.246961 88.3053104,127.383384 98.2398056,120.7444 C107.879551,114.30218 113.341798,101.49532 113.941423,88.8769785 C113.959798,88.4909475 113.974423,88.1052913 113.983798,87.7200098 C114.318673,74.7272556 109.451175,62.138897 100.432805,53.0323131 L100.432805,53.0323131 Z"></path>
        </g>
    </g>
</svg>