<svg width="375" height="812" viewBox="0 0 375 812" fill="none" xmlns="http://www.w3.org/2000/svg">
<g clip-path="url(#clip0)">
<rect width="375" height="812" fill="white"/>
<rect width="375" height="812" fill="#1D2128"/>
<rect x="121" y="799" width="134" height="5" rx="2.5" fill="white"/>
<path d="M373.521 245.143C374.099 245.721 375.037 245.721 375.616 245.143C376.194 244.564 376.194 243.626 375.616 243.048C375.037 242.469 374.099 242.469 373.521 243.048C372.942 243.626 372.942 244.564 373.521 245.143Z" fill="white"/>
<path d="M364.442 254.222C365.02 254.8 365.958 254.8 366.537 254.222C367.115 253.643 367.115 252.705 366.537 252.127C365.958 251.548 365.02 251.548 364.442 252.127C363.863 252.705 363.863 253.643 364.442 254.222Z" fill="white"/>
<path d="M355.363 263.3C355.941 263.879 356.879 263.879 357.458 263.3C358.036 262.722 358.036 261.784 357.458 261.205C356.879 260.627 355.941 260.627 355.363 261.205C354.784 261.784 354.784 262.722 355.363 263.3Z" fill="white"/>
<path d="M346.284 272.38C346.863 272.958 347.801 272.958 348.38 272.38C348.958 271.801 348.958 270.863 348.38 270.284C347.801 269.706 346.863 269.706 346.284 270.284C345.706 270.863 345.706 271.801 346.284 272.38Z" fill="white"/>
<path d="M337.205 281.458C337.784 282.037 338.722 282.037 339.3 281.458C339.879 280.88 339.879 279.942 339.3 279.363C338.722 278.784 337.784 278.784 337.205 279.363C336.627 279.942 336.627 280.88 337.205 281.458Z" fill="white"/>
<path d="M328.126 290.537C328.705 291.116 329.643 291.116 330.221 290.537C330.8 289.959 330.8 289.021 330.221 288.442C329.643 287.864 328.705 287.864 328.126 288.442C327.548 289.021 327.548 289.959 328.126 290.537Z" fill="white"/>
<path d="M319.047 299.616C319.626 300.195 320.564 300.195 321.142 299.616C321.721 299.038 321.721 298.1 321.142 297.521C320.564 296.943 319.626 296.943 319.047 297.521C318.469 298.1 318.469 299.038 319.047 299.616Z" fill="white"/>
<path d="M373.521 263.3C374.099 263.879 375.037 263.879 375.616 263.3C376.194 262.722 376.194 261.784 375.616 261.205C375.037 260.627 374.099 260.627 373.521 261.205C372.942 261.784 372.942 262.722 373.521 263.3Z" fill="white"/>
<path d="M364.442 272.38C365.02 272.958 365.958 272.958 366.537 272.38C367.115 271.801 367.115 270.863 366.537 270.284C365.958 269.706 365.02 269.706 364.442 270.284C363.863 270.863 363.863 271.801 364.442 272.38Z" fill="white"/>
<path d="M355.363 281.458C355.941 282.037 356.879 282.037 357.458 281.458C358.036 280.88 358.036 279.942 357.458 279.363C356.879 278.784 355.941 278.784 355.363 279.363C354.784 279.942 354.784 280.88 355.363 281.458Z" fill="white"/>
<path d="M346.284 290.537C346.863 291.116 347.801 291.116 348.38 290.537C348.958 289.959 348.958 289.021 348.38 288.442C347.801 287.864 346.863 287.864 346.284 288.442C345.706 289.021 345.706 289.959 346.284 290.537Z" fill="white"/>
<path d="M337.205 299.616C337.784 300.195 338.722 300.195 339.3 299.616C339.879 299.038 339.879 298.1 339.3 297.521C338.722 296.943 337.784 296.943 337.205 297.521C336.627 298.1 336.627 299.038 337.205 299.616Z" fill="white"/>
<path d="M328.126 308.695C328.705 309.273 329.643 309.273 330.221 308.695C330.8 308.116 330.8 307.178 330.221 306.6C329.643 306.021 328.705 306.021 328.126 306.6C327.548 307.178 327.548 308.116 328.126 308.695Z" fill="white"/>
<path d="M373.521 281.458C374.099 282.037 375.037 282.037 375.616 281.458C376.194 280.88 376.194 279.942 375.616 279.363C375.037 278.784 374.099 278.784 373.521 279.363C372.942 279.942 372.942 280.88 373.521 281.458Z" fill="white"/>
<path d="M364.442 290.537C365.02 291.116 365.958 291.116 366.537 290.537C367.115 289.959 367.115 289.021 366.537 288.442C365.958 287.864 365.02 287.864 364.442 288.442C363.863 289.021 363.863 289.959 364.442 290.537Z" fill="white"/>
<path d="M355.363 299.616C355.941 300.195 356.879 300.195 357.458 299.616C358.036 299.038 358.036 298.1 357.458 297.521C356.879 296.943 355.941 296.943 355.363 297.521C354.784 298.1 354.784 299.038 355.363 299.616Z" fill="white"/>
<path d="M346.284 308.695C346.863 309.273 347.801 309.273 348.38 308.695C348.958 308.116 348.958 307.178 348.38 306.6C347.801 306.021 346.863 306.021 346.284 306.6C345.706 307.178 345.706 308.116 346.284 308.695Z" fill="white"/>
<path d="M337.205 317.774C337.784 318.353 338.722 318.353 339.3 317.774C339.879 317.195 339.879 316.257 339.3 315.679C338.722 315.1 337.784 315.1 337.205 315.679C336.627 316.257 336.627 317.195 337.205 317.774Z" fill="white"/>
<path d="M373.521 299.616C374.099 300.195 375.037 300.195 375.616 299.616C376.194 299.038 376.194 298.1 375.616 297.521C375.037 296.943 374.099 296.943 373.521 297.521C372.942 298.1 372.942 299.038 373.521 299.616Z" fill="white"/>
<path d="M364.442 308.695C365.02 309.273 365.958 309.273 366.537 308.695C367.115 308.116 367.115 307.178 366.537 306.6C365.958 306.021 365.02 306.021 364.442 306.6C363.863 307.178 363.863 308.116 364.442 308.695Z" fill="white"/>
<path d="M355.363 317.774C355.941 318.353 356.879 318.353 357.458 317.774C358.036 317.195 358.036 316.257 357.458 315.679C356.879 315.1 355.941 315.1 355.363 315.679C354.784 316.257 354.784 317.195 355.363 317.774Z" fill="white"/>
<path d="M346.284 326.853C346.863 327.431 347.801 327.431 348.38 326.853C348.958 326.274 348.958 325.336 348.38 324.758C347.801 324.179 346.863 324.179 346.284 324.758C345.706 325.336 345.706 326.274 346.284 326.853Z" fill="white"/>
<path d="M373.521 317.774C374.099 318.353 375.037 318.353 375.616 317.774C376.194 317.195 376.194 316.257 375.616 315.679C375.037 315.1 374.099 315.1 373.521 315.679C372.942 316.257 372.942 317.195 373.521 317.774Z" fill="white"/>
<path d="M364.442 326.853C365.02 327.431 365.958 327.431 366.537 326.853C367.115 326.274 367.115 325.336 366.537 324.758C365.958 324.179 365.02 324.179 364.442 324.758C363.863 325.336 363.863 326.274 364.442 326.853Z" fill="white"/>
<path d="M355.363 335.932C355.941 336.51 356.879 336.51 357.458 335.932C358.036 335.353 358.036 334.415 357.458 333.837C356.879 333.258 355.941 333.258 355.363 333.837C354.784 334.415 354.784 335.353 355.363 335.932Z" fill="white"/>
<path d="M373.521 335.932C374.099 336.51 375.037 336.51 375.616 335.932C376.194 335.353 376.194 334.415 375.616 333.837C375.037 333.258 374.099 333.258 373.521 333.837C372.942 334.415 372.942 335.353 373.521 335.932Z" fill="white"/>
<path d="M364.442 345.011C365.02 345.589 365.958 345.589 366.537 345.011C367.115 344.432 367.115 343.494 366.537 342.916C365.958 342.337 365.02 342.337 364.442 342.916C363.863 343.494 363.863 344.432 364.442 345.011Z" fill="white"/>
<path d="M373.521 354.089C374.099 354.668 375.037 354.668 375.616 354.089C376.194 353.511 376.194 352.573 375.616 351.994C375.037 351.416 374.099 351.416 373.521 351.994C372.942 352.573 372.942 353.511 373.521 354.089Z" fill="white"/>
<g filter="url(#filter0_d)">
<circle cx="188.5" cy="693.5" r="50.5" fill="#EEEEEE"/>
<circle cx="188.5" cy="693.5" r="50.5" fill="url(#paint0_linear)" fill-opacity="0.03"/>
</g>
<path d="M175.917 694H198.084" stroke="#1D2128" stroke-width="2" stroke-linecap="round" stroke-linejoin="round"/>
<path d="M187 682.917L198.083 694L187 705.083" stroke="#1D2128" stroke-width="2" stroke-linecap="round" stroke-linejoin="round"/>
<rect opacity="0.01" x="30" y="73" width="28" height="28" fill="white"/>
<path fill-rule="evenodd" clip-rule="evenodd" d="M35 79C34.4477 79 34 79.4477 34 80C34 80.5523 34.4477 81 35 81H53.0425C53.5948 81 54.0425 80.5523 54.0425 80C54.0425 79.4477 53.5948 79 53.0425 79H35ZM34 87C34 86.4477 34.4477 86 35 86H53.0425C53.5948 86 54.0425 86.4477 54.0425 87C54.0425 87.5523 53.5948 88 53.0425 88H35C34.4477 88 34 87.5523 34 87ZM34 94C34 93.4477 34.4477 93 35 93H53.0425C53.5948 93 54.0425 93.4477 54.0425 94C54.0425 94.5523 53.5948 95 53.0425 95H35C34.4477 95 34 94.5523 34 94Z" fill="white"/>
<rect opacity="0.35" x="336.833" y="17.5" width="21" height="10.3333" rx="2.16667" stroke="white"/>
<path opacity="0.4" d="M359.333 20.6665V24.6665C360.138 24.3277 360.661 23.5396 360.661 22.6665C360.661 21.7934 360.138 21.0053 359.333 20.6665Z" fill="white"/>
<rect x="338.333" y="19" width="18" height="7.33333" rx="1.33333" fill="white"/>
<path fill-rule="evenodd" clip-rule="evenodd" d="M323.667 19.282C325.892 19.2821 328.031 20.1362 329.644 21.6678C329.765 21.7861 329.959 21.7846 330.079 21.6645L331.239 20.4942C331.3 20.4332 331.334 20.3507 331.333 20.2649C331.333 20.179 331.298 20.0969 331.237 20.0367C327.005 15.9845 320.329 15.9845 316.097 20.0367C316.035 20.0969 316.001 20.179 316 20.2648C315.999 20.3507 316.033 20.4332 316.094 20.4942L317.255 21.6645C317.374 21.7848 317.568 21.7863 317.69 21.6678C319.302 20.1361 321.442 19.282 323.667 19.282ZM323.667 23.0896C324.889 23.0895 326.068 23.5435 326.974 24.3633C327.097 24.4796 327.29 24.4771 327.409 24.3576L328.569 23.1873C328.63 23.1259 328.663 23.0426 328.663 22.9561C328.662 22.8695 328.626 22.787 328.564 22.7268C325.805 20.1624 321.532 20.1624 318.773 22.7268C318.71 22.787 318.675 22.8696 318.674 22.9561C318.673 23.0427 318.707 23.126 318.768 23.1873L319.927 24.3576C320.047 24.4771 320.24 24.4796 320.362 24.3633C321.268 23.544 322.446 23.0901 323.667 23.0896ZM325.989 25.6515C325.991 25.7382 325.957 25.8219 325.895 25.8827L323.89 27.9047C323.831 27.9641 323.751 27.9976 323.667 27.9976C323.583 27.9976 323.503 27.9641 323.445 27.9047L321.439 25.8827C321.377 25.8219 321.343 25.7382 321.345 25.6514C321.347 25.5646 321.384 25.4824 321.449 25.4243C322.729 24.342 324.605 24.342 325.886 25.4243C325.95 25.4825 325.988 25.5647 325.989 25.6515Z" fill="white"/>
<path fill-rule="evenodd" clip-rule="evenodd" d="M310 17.3335H309C308.448 17.3335 308 17.7812 308 18.3335V27.0002C308 27.5524 308.448 28.0002 309 28.0002H310C310.552 28.0002 311 27.5524 311 27.0002V18.3335C311 17.7812 310.552 17.3335 310 17.3335ZM304.333 19.6668H305.333C305.886 19.6668 306.333 20.1145 306.333 20.6668V27.0002C306.333 27.5524 305.886 28.0002 305.333 28.0002H304.333C303.781 28.0002 303.333 27.5524 303.333 27.0002V20.6668C303.333 20.1145 303.781 19.6668 304.333 19.6668ZM300.667 22.0002H299.667C299.114 22.0002 298.667 22.4479 298.667 23.0002V27.0002C298.667 27.5524 299.114 28.0002 299.667 28.0002H300.667C301.219 28.0002 301.667 27.5524 301.667 27.0002V23.0002C301.667 22.4479 301.219 22.0002 300.667 22.0002ZM296 24.0002H295C294.448 24.0002 294 24.4479 294 25.0002V27.0002C294 27.5524 294.448 28.0002 295 28.0002H296C296.552 28.0002 297 27.5524 297 27.0002V25.0002C297 24.4479 296.552 24.0002 296 24.0002Z" fill="white"/>
<path d="M37.1341 28.2563C39.8221 28.2563 41.4187 26.1543 41.4187 22.5874C41.4187 19.0864 39.7195 17.1675 37.1927 17.1675C34.8929 17.1675 33.2669 18.7129 33.2669 20.8735C33.2669 22.9023 34.7317 24.3818 36.7459 24.3818C37.9837 24.3818 38.9871 23.8105 39.4852 22.8071H39.6097C39.5877 25.29 38.7015 26.7109 37.1561 26.7109C36.2479 26.7109 35.5228 26.2129 35.2957 25.4072H33.4134C33.721 27.1284 35.2005 28.2563 37.1341 28.2563ZM37.2 22.9243C35.9695 22.9243 35.1199 22.0601 35.1199 20.8149C35.1199 19.6211 36.0135 18.7056 37.2073 18.7056C38.4012 18.7056 39.2947 19.6357 39.2947 20.8516C39.2947 22.0527 38.4231 22.9243 37.2 22.9243ZM44.4366 21.1592C45.1324 21.1592 45.6085 20.6758 45.6085 20.0239C45.6085 19.3721 45.1324 18.8887 44.4366 18.8887C43.7481 18.8887 43.2647 19.3721 43.2647 20.0239C43.2647 20.6758 43.7481 21.1592 44.4366 21.1592ZM44.4366 26.5352C45.1324 26.5352 45.6085 26.0444 45.6085 25.3999C45.6085 24.748 45.1324 24.2646 44.4366 24.2646C43.7481 24.2646 43.2647 24.748 43.2647 25.3999C43.2647 26.0444 43.7481 26.5352 44.4366 26.5352ZM52.6107 28H54.4198V25.9712H55.848V24.4111H54.4198V17.4312H51.7538C50.3183 19.6138 48.8168 22.0454 47.4472 24.4258V25.9712H52.6107V28ZM49.1977 24.3452C50.2304 22.5508 51.4535 20.5952 52.5375 18.9399H52.64V24.4551H49.1977V24.3452ZM59.8767 28H61.7663V17.4312H59.884L57.1228 19.3721V21.1519L59.7521 19.2915H59.8767V28Z" fill="white"/>
<path d="M71.824 257.116C71.824 259.624 71.252 260.372 68.304 260.46V262H79.524V260.46C76.576 260.372 76.004 259.624 76.004 257.116V236.568C76.004 234.06 76.576 233.312 79.524 233.224V231.684H68.304V233.224C71.252 233.312 71.824 234.06 71.824 236.568V244.84H59.328V236.568C59.328 234.06 59.9 233.312 62.848 233.224V231.684H51.628V233.224C54.576 233.312 55.148 234.06 55.148 236.568V257.116C55.148 259.624 54.576 260.372 51.628 260.46V262H62.848V260.46C59.9 260.372 59.328 259.624 59.328 257.116V247.04H71.824V257.116ZM101.859 251.352C101.859 244.708 98.1632 239.736 91.6512 239.736C85.8432 239.736 81.6192 244.004 81.6192 251.132C81.6192 258.304 85.8432 262.528 91.7392 262.528C97.5912 262.528 101.859 258.348 101.859 251.352ZM97.5472 251.528C97.5472 257.204 95.6112 260.372 91.8272 260.372C87.5152 260.372 85.9312 257.336 85.9312 250.692C85.9312 245.236 87.2512 241.892 91.6512 241.892C95.4792 241.892 97.5472 244.796 97.5472 251.528ZM118.633 250.868C119.249 248.668 119.777 246.248 119.909 245.544H120.085C120.261 246.248 120.745 248.404 121.493 250.868L125.013 262.22H128.137L133.153 244.972C133.813 242.684 134.341 242.112 136.233 241.892V240.396H128.313V241.892C130.205 241.98 130.777 242.42 130.777 243.344C130.777 243.696 130.733 244.048 130.601 244.488L128.357 253.288C128.005 254.74 127.565 256.412 127.301 257.6H127.125C126.993 256.852 126.597 254.828 126.069 253.244L121.889 240.396H119.117L115.597 253.288C115.069 255.18 114.673 256.984 114.541 257.6H114.365C114.233 256.94 113.705 254.564 113.309 253.244L110.669 244.488C110.493 243.872 110.449 243.564 110.449 243.256C110.449 242.156 111.549 241.98 112.957 241.892V240.396H103.541V241.892C105.257 242.112 105.873 242.596 106.621 244.972L112.165 262.22H115.377L118.633 250.868ZM163.059 258.744C163.191 260.504 163.763 262.044 164.027 262.572H164.687L170.275 260.988V259.668C167.459 259.58 166.799 259.14 166.799 255.928V229.88H165.875L159.451 231.156V232.564C162.047 232.652 162.795 233.092 162.795 236.304V242.508C161.167 240.748 159.011 239.868 156.811 239.868C151.179 239.868 147.791 244.532 147.791 251.396C147.791 259.404 151.971 262.44 156.459 262.44C158.791 262.44 161.387 260.9 163.059 258.744ZM152.103 250.868C152.103 244.004 154.127 242.376 157.471 242.376C159.319 242.376 161.431 243.212 162.795 244.884V256.808C161.035 258.744 159.143 259.976 157.163 259.976C153.687 259.976 152.103 257.688 152.103 250.868ZM192.996 251.352C192.996 244.708 189.3 239.736 182.788 239.736C176.98 239.736 172.756 244.004 172.756 251.132C172.756 258.304 176.98 262.528 182.876 262.528C188.728 262.528 192.996 258.348 192.996 251.352ZM188.684 251.528C188.684 257.204 186.748 260.372 182.964 260.372C178.652 260.372 177.068 257.336 177.068 250.692C177.068 245.236 178.388 241.892 182.788 241.892C186.616 241.892 188.684 244.796 188.684 251.528ZM209.093 271.372C213.449 270.492 215.517 268.028 217.365 262.704L223.525 244.972C224.361 242.596 224.977 242.112 226.737 241.892V240.396H218.465V241.892C220.841 241.98 221.369 242.42 221.237 243.476C221.193 243.74 221.105 244.092 220.973 244.488L217.805 254.3C217.013 256.72 216.661 258.48 216.529 259.184H216.397C216.221 258.216 215.781 256.016 214.857 253.376L211.689 244.488C211.513 243.96 211.381 243.564 211.381 243.256C211.381 242.376 212.041 241.98 214.197 241.892V240.396H204.429V241.892C206.145 242.112 206.805 242.728 207.641 244.972L211.161 254.564C212.261 257.512 212.877 259.844 213.449 262.132L215.033 261.912C213.669 266.576 211.381 267.5 208.037 268.336L209.093 271.372ZM248.512 251.352C248.512 244.708 244.816 239.736 238.303 239.736C232.495 239.736 228.272 244.004 228.272 251.132C228.272 258.304 232.495 262.528 238.392 262.528C244.244 262.528 248.512 258.348 248.512 251.352ZM244.2 251.528C244.2 257.204 242.264 260.372 238.48 260.372C234.168 260.372 232.584 257.336 232.584 250.692C232.584 245.236 233.904 241.892 238.303 241.892C242.132 241.892 244.2 244.796 244.2 251.528ZM271.269 239.824H270.301L264.185 241.584V242.904C266.605 242.992 267.265 243.432 267.265 246.644V256.676C265.505 258.392 264.053 259.492 261.413 259.492C259.301 259.492 258.113 258.656 258.113 255.928V239.824H257.145L251.029 241.584V242.904C253.449 242.992 254.109 243.432 254.109 246.644V256.676C254.109 260.68 256.661 262.528 260.181 262.528C263.525 262.528 265.549 260.768 267.529 258.656C267.661 260.108 268.013 261.384 268.497 262.572H269.157L274.481 260.988V259.668C271.885 259.58 271.269 259.14 271.269 255.928V239.824ZM62.716 311.844C58.096 311.844 55.896 309.776 55.808 303.396H69.844V302.208C69.844 295.52 66.588 291.692 61.044 291.692C55.632 291.692 51.584 295.872 51.584 303.044C51.584 310.26 55.368 314.484 61.66 314.484C64.784 314.484 67.38 313.12 69.492 311.492L68.568 309.996C67.028 311.008 64.608 311.844 62.716 311.844ZM60.956 293.804C64.3 293.804 65.664 295.872 65.664 301.24H55.852C56.16 295.608 57.964 293.804 60.956 293.804ZM81.3118 304.54H81.4878L85.0958 310.216C85.4918 310.876 85.7118 311.316 85.7118 311.624C85.7118 312.196 85.0518 312.416 83.5118 312.504V314H93.2798V312.504C91.2558 312.328 90.9038 311.888 89.4518 309.732L84.6118 302.472L88.3518 296.664C89.6718 294.596 90.2878 294.112 92.1798 293.892V292.396H84.4358V293.892C86.1518 293.98 86.4598 294.376 86.4598 294.816C86.4598 295.168 86.3278 295.52 85.9318 296.18L83.2038 300.712H83.0278L80.1678 296.18C79.7718 295.564 79.5518 295.08 79.5518 294.728C79.5518 294.2 80.1238 293.98 81.5318 293.892V292.396H71.7198V293.892C73.8318 294.112 74.2718 294.42 75.8118 296.664L79.9478 302.692L75.1958 309.732C73.7878 311.8 73.3478 312.328 71.4558 312.504V314H79.4638V312.504C77.9678 312.416 77.3078 312.064 77.3078 311.404C77.3078 311.096 77.4398 310.7 77.7478 310.216L81.3118 304.54ZM112.881 303.616C112.881 310.304 110.945 312.064 107.293 312.064C105.621 312.064 103.509 311.096 102.145 309.424V297.5C103.905 295.564 105.797 294.684 107.865 294.684C111.429 294.684 112.881 296.84 112.881 303.616ZM101.925 295.476C101.837 293.804 101.441 292.352 101.221 291.824H100.561L94.9292 293.584V294.904C97.5252 294.992 98.1412 295.432 98.1412 298.644V318.048C98.1412 320.556 97.5692 320.952 95.0612 321.128V322.624H105.577V321.128C102.585 320.996 102.145 320.468 102.145 318.092V311.712C103.817 313.472 105.973 314.22 108.217 314.22C114.025 314.22 117.193 309.644 117.193 302.78C117.193 295.212 113.497 291.868 108.657 291.868C106.281 291.868 103.553 293.364 101.925 295.476ZM131.509 311.844C126.889 311.844 124.689 309.776 124.601 303.396H138.637V302.208C138.637 295.52 135.381 291.692 129.837 291.692C124.425 291.692 120.377 295.872 120.377 303.044C120.377 310.26 124.161 314.484 130.453 314.484C133.577 314.484 136.173 313.12 138.285 311.492L137.361 309.996C135.821 311.008 133.401 311.844 131.509 311.844ZM129.749 293.804C133.093 293.804 134.457 295.872 134.457 301.24H124.645C124.953 295.608 126.757 293.804 129.749 293.804ZM148.247 296.84C148.247 294.42 147.807 292.572 147.499 291.824H146.839L141.207 293.584V294.904C143.803 294.992 144.419 295.432 144.419 298.644V309.424C144.419 311.932 143.847 312.328 141.339 312.504V314H152.163V312.504C148.863 312.372 148.423 311.932 148.423 309.424V301.724C148.423 297.456 149.611 296.048 153.219 296.048C153.879 296.048 154.275 296.136 154.583 296.268L155.551 291.912C155.199 291.78 154.715 291.692 154.231 291.692C151.855 291.692 149.963 293.804 148.247 296.84ZM167.1 314V312.504C164.328 312.372 164.02 311.932 164.02 309.424V291.824H163.36L156.804 293.584V294.904C159.4 294.992 160.016 295.432 160.016 298.644V309.424C160.016 311.932 159.444 312.328 156.936 312.504V314H167.1ZM164.46 285.664C164.46 284.124 163.272 282.892 161.732 282.892C160.192 282.892 159.004 284.124 159.004 285.664C159.004 287.204 160.192 288.436 161.732 288.436C163.272 288.436 164.46 287.204 164.46 285.664ZM180.107 311.844C175.487 311.844 173.287 309.776 173.199 303.396H187.235V302.208C187.235 295.52 183.979 291.692 178.435 291.692C173.023 291.692 168.975 295.872 168.975 303.044C168.975 310.26 172.759 314.484 179.051 314.484C182.175 314.484 184.771 313.12 186.883 311.492L185.959 309.996C184.419 311.008 181.999 311.844 180.107 311.844ZM178.347 293.804C181.691 293.804 183.055 295.872 183.055 301.24H173.243C173.551 295.608 175.355 293.804 178.347 293.804ZM210.308 297.764C210.308 293.936 207.888 291.868 204.368 291.868C201.024 291.868 198.824 293.584 196.844 295.652C196.8 294.112 196.404 292.528 196.096 291.824H195.436L189.804 293.584V294.904C192.4 294.992 193.016 295.432 193.016 298.644V309.424C193.016 311.932 192.444 312.328 189.936 312.504V314H200.1V312.504C197.328 312.372 197.02 311.888 197.02 309.732V297.72C198.78 296.004 200.452 294.948 203.092 294.948C205.204 294.948 206.304 295.96 206.304 298.556V309.732C206.304 311.888 205.996 312.372 203.224 312.504V314H213.168V312.504C210.836 312.328 210.308 311.932 210.308 309.424V297.764ZM232.573 293.584C231.473 292.836 229.361 291.868 225.973 291.868C220.253 291.868 215.897 295.916 215.897 303.528C215.897 310.92 220.341 314.484 225.753 314.484C228.965 314.484 231.429 313.076 233.365 310.876L232.221 309.644C230.285 311.228 229.009 312.064 226.369 312.064C222.277 312.064 220.253 309.688 220.253 302.648C220.253 296.092 222.541 293.892 225.885 293.892C228.305 293.892 229.141 295.036 229.581 297.632H232.573V293.584ZM247.396 311.844C242.776 311.844 240.576 309.776 240.488 303.396H254.524V302.208C254.524 295.52 251.268 291.692 245.724 291.692C240.312 291.692 236.264 295.872 236.264 303.044C236.264 310.26 240.048 314.484 246.34 314.484C249.464 314.484 252.06 313.12 254.172 311.492L253.248 309.996C251.708 311.008 249.288 311.844 247.396 311.844ZM245.636 293.804C248.98 293.804 250.344 295.872 250.344 301.24H240.532C240.84 295.608 242.644 293.804 245.636 293.804ZM63.112 344.396H57.876C57.876 342.152 58.052 339.38 58.272 337.796L56.204 338.324C55.192 339.952 54.532 342.328 54.136 344.396L51.188 345.408V346.816H53.828V360.676C53.828 365.076 55.852 366.616 59.152 366.616C60.648 366.616 62.056 366.22 63.508 365.472L63.156 363.888C62.232 364.196 61.396 364.328 60.648 364.328C58.448 364.328 57.832 363.536 57.832 360.104V346.816H62.496L63.112 344.396ZM72.4967 338.236C72.4967 336.168 72.1887 334.584 71.9687 333.88H71.3087L65.1487 335.156V336.564C67.7447 336.652 68.4927 337.092 68.4927 340.304V361.424C68.4927 363.932 67.9207 364.328 65.4127 364.504V366H75.5767V364.504C72.8047 364.372 72.4967 363.888 72.4967 361.732V349.72C74.2567 348.004 75.9287 346.948 78.5687 346.948C80.6807 346.948 81.7807 347.96 81.7807 350.556V361.732C81.7807 363.888 81.4727 364.372 78.7007 364.504V366H88.6447V364.504C86.3127 364.328 85.7847 363.932 85.7847 361.424V349.764C85.7847 345.936 83.3647 343.868 79.8447 343.868C76.5007 343.868 74.4767 345.496 72.4967 347.476V338.236ZM102.505 363.844C97.8851 363.844 95.6851 361.776 95.5971 355.396H109.633V354.208C109.633 347.52 106.377 343.692 100.833 343.692C95.4211 343.692 91.3731 347.872 91.3731 355.044C91.3731 362.26 95.1571 366.484 101.449 366.484C104.573 366.484 107.169 365.12 109.281 363.492L108.357 361.996C106.817 363.008 104.397 363.844 102.505 363.844ZM100.745 345.804C104.089 345.804 105.453 347.872 105.453 353.24H95.6411C95.9491 347.608 97.7531 345.804 100.745 345.804ZM129.477 338.236C129.477 336.476 129.257 334.804 128.949 333.88H128.289L121.953 335.156V336.564C124.725 336.652 125.473 337.092 125.473 340.304V361.424C125.473 363.932 124.901 364.328 122.217 364.504V366H132.733V364.504C129.873 364.372 129.477 363.888 129.477 361.292V338.236ZM146.591 363.844C141.971 363.844 139.771 361.776 139.683 355.396H153.719V354.208C153.719 347.52 150.463 343.692 144.919 343.692C139.507 343.692 135.459 347.872 135.459 355.044C135.459 362.26 139.243 366.484 145.535 366.484C148.659 366.484 151.255 365.12 153.367 363.492L152.443 361.996C150.903 363.008 148.483 363.844 146.591 363.844ZM144.831 345.804C148.175 345.804 149.539 347.872 149.539 353.24H139.727C140.035 347.608 141.839 345.804 144.831 345.804ZM167.861 366.22L174.197 348.972C175.077 346.596 175.649 346.112 177.409 345.892V344.396H169.137V345.892C171.249 345.98 171.953 346.332 171.953 347.212C171.953 347.476 171.821 347.96 171.645 348.488L168.169 358.344C167.685 359.664 167.245 361.556 167.113 362.128H166.937C166.717 360.896 166.189 359.048 165.925 358.3L162.361 348.488C162.141 347.872 162.053 347.52 162.053 347.168C162.053 346.332 162.757 345.98 164.869 345.892V344.396H155.101V345.892C156.817 346.112 157.433 346.64 158.313 348.972L164.825 366.22H167.861ZM189.646 363.844C185.026 363.844 182.826 361.776 182.738 355.396H196.774V354.208C196.774 347.52 193.518 343.692 187.974 343.692C182.562 343.692 178.514 347.872 178.514 355.044C178.514 362.26 182.298 366.484 188.59 366.484C191.714 366.484 194.31 365.12 196.422 363.492L195.498 361.996C193.958 363.008 191.538 363.844 189.646 363.844ZM187.886 345.804C191.23 345.804 192.594 347.872 192.594 353.24H182.782C183.09 347.608 184.894 345.804 187.886 345.804ZM206.735 338.236C206.735 336.476 206.515 334.804 206.207 333.88H205.547L199.211 335.156V336.564C201.983 336.652 202.731 337.092 202.731 340.304V361.424C202.731 363.932 202.159 364.328 199.475 364.504V366H209.991V364.504C207.131 364.372 206.735 363.888 206.735 361.292V338.236ZM242.84 355.352C242.84 348.708 239.144 343.736 232.632 343.736C226.824 343.736 222.6 348.004 222.6 355.132C222.6 362.304 226.824 366.528 232.72 366.528C238.572 366.528 242.84 362.348 242.84 355.352ZM238.528 355.528C238.528 361.204 236.592 364.372 232.808 364.372C228.496 364.372 226.912 361.336 226.912 354.692C226.912 349.236 228.232 345.892 232.632 345.892C236.46 345.892 238.528 348.796 238.528 355.528ZM252.794 346.816H257.458L258.074 344.396H252.75V340.216C252.75 337.18 253.718 336.036 255.39 336.036C256.578 336.036 257.194 336.872 257.414 338.324H260.098L260.494 334.672C259.438 334.232 257.458 333.88 255.786 333.88C251.65 333.88 248.79 336.212 248.79 340.26V344.396L246.018 345.408V346.816H248.79V361.424C248.79 363.932 248.218 364.328 245.71 364.504V366H256.71V364.504C253.278 364.372 252.794 363.8 252.794 361.424V346.816ZM58.888 418.528C64.036 418.528 67.292 415.668 67.292 411.268C67.292 408.1 65.4 406.252 61.264 405.284L58.668 404.668C55.984 404.052 55.148 403.04 55.148 401.192C55.148 399.08 56.6 397.804 59.196 397.804C61.66 397.804 62.892 398.948 63.332 401.28H66.148V397.32C65.092 396.792 62.98 395.78 59.548 395.78C55.324 395.78 51.848 397.98 51.848 402.116C51.848 405.68 54.136 407.44 57.436 408.232L60.032 408.848C62.54 409.464 63.816 410.3 63.816 412.676C63.816 415.492 61.792 416.504 59.284 416.504C56.204 416.504 54.884 415.404 54.576 412.412H51.628V416.68C52.684 417.34 54.84 418.528 58.888 418.528ZM90.1132 395.824H89.1452L83.0292 397.584V398.904C85.4492 398.992 86.1092 399.432 86.1092 402.644V412.676C84.3492 414.392 82.8972 415.492 80.2572 415.492C78.1452 415.492 76.9572 414.656 76.9572 411.928V395.824H75.9892L69.8732 397.584V398.904C72.2932 398.992 72.9532 399.432 72.9532 402.644V412.676C72.9532 416.68 75.5052 418.528 79.0252 418.528C82.3692 418.528 84.3932 416.768 86.3732 414.656C86.5052 416.108 86.8572 417.384 87.3412 418.572H88.0012L93.3252 416.988V415.668C90.7292 415.58 90.1132 415.14 90.1132 411.928V395.824ZM113.569 407.616C113.569 414.304 111.633 416.064 107.981 416.064C106.309 416.064 104.197 415.096 102.833 413.424V401.5C104.593 399.564 106.485 398.684 108.553 398.684C112.117 398.684 113.569 400.84 113.569 407.616ZM102.613 399.476C102.525 397.804 102.129 396.352 101.909 395.824H101.249L95.6167 397.584V398.904C98.2127 398.992 98.8287 399.432 98.8287 402.644V422.048C98.8287 424.556 98.2567 424.952 95.7487 425.128V426.624H106.265V425.128C103.273 424.996 102.833 424.468 102.833 422.092V415.712C104.505 417.472 106.661 418.22 108.905 418.22C114.713 418.22 117.881 413.644 117.881 406.78C117.881 399.212 114.185 395.868 109.345 395.868C106.969 395.868 104.241 397.364 102.613 399.476ZM138.576 407.616C138.576 414.304 136.64 416.064 132.988 416.064C131.316 416.064 129.204 415.096 127.84 413.424V401.5C129.6 399.564 131.492 398.684 133.56 398.684C137.124 398.684 138.576 400.84 138.576 407.616ZM127.62 399.476C127.532 397.804 127.136 396.352 126.916 395.824H126.256L120.624 397.584V398.904C123.22 398.992 123.836 399.432 123.836 402.644V422.048C123.836 424.556 123.264 424.952 120.756 425.128V426.624H131.272V425.128C128.28 424.996 127.84 424.468 127.84 422.092V415.712C129.512 417.472 131.668 418.22 133.912 418.22C139.72 418.22 142.888 413.644 142.888 406.78C142.888 399.212 139.192 395.868 134.352 395.868C131.976 395.868 129.248 397.364 127.62 399.476ZM166.312 407.352C166.312 400.708 162.616 395.736 156.104 395.736C150.296 395.736 146.072 400.004 146.072 407.132C146.072 414.304 150.296 418.528 156.192 418.528C162.044 418.528 166.312 414.348 166.312 407.352ZM162 407.528C162 413.204 160.064 416.372 156.28 416.372C151.968 416.372 150.384 413.336 150.384 406.692C150.384 401.236 151.704 397.892 156.104 397.892C159.932 397.892 162 400.796 162 407.528ZM176.09 400.84C176.09 398.42 175.65 396.572 175.342 395.824H174.682L169.05 397.584V398.904C171.646 398.992 172.262 399.432 172.262 402.644V413.424C172.262 415.932 171.69 416.328 169.182 416.504V418H180.006V416.504C176.706 416.372 176.266 415.932 176.266 413.424V405.724C176.266 401.456 177.454 400.048 181.062 400.048C181.722 400.048 182.118 400.136 182.426 400.268L183.394 395.912C183.042 395.78 182.558 395.692 182.074 395.692C179.698 395.692 177.806 397.804 176.09 400.84ZM197.046 396.396H191.81C191.81 394.152 191.986 391.38 192.206 389.796L190.138 390.324C189.126 391.952 188.466 394.328 188.07 396.396L185.122 397.408V398.816H187.762V412.676C187.762 417.076 189.786 418.616 193.086 418.616C194.582 418.616 195.99 418.22 197.442 417.472L197.09 415.888C196.166 416.196 195.33 416.328 194.582 416.328C192.382 416.328 191.766 415.536 191.766 412.104V398.816H196.43L197.046 396.396ZM212.573 427.372C216.929 426.492 218.997 424.028 220.845 418.704L227.005 400.972C227.841 398.596 228.457 398.112 230.217 397.892V396.396H221.945V397.892C224.321 397.98 224.849 398.42 224.717 399.476C224.673 399.74 224.585 400.092 224.453 400.488L221.285 410.3C220.493 412.72 220.141 414.48 220.009 415.184H219.877C219.701 414.216 219.261 412.016 218.337 409.376L215.169 400.488C214.993 399.96 214.861 399.564 214.861 399.256C214.861 398.376 215.521 397.98 217.677 397.892V396.396H207.909V397.892C209.625 398.112 210.285 398.728 211.121 400.972L214.641 410.564C215.741 413.512 216.357 415.844 216.929 418.132L218.513 417.912C217.149 422.576 214.861 423.5 211.517 424.336L212.573 427.372ZM251.992 407.352C251.992 400.708 248.296 395.736 241.784 395.736C235.976 395.736 231.752 400.004 231.752 407.132C231.752 414.304 235.976 418.528 241.872 418.528C247.724 418.528 251.992 414.348 251.992 407.352ZM247.68 407.528C247.68 413.204 245.744 416.372 241.96 416.372C237.648 416.372 236.064 413.336 236.064 406.692C236.064 401.236 237.384 397.892 241.784 397.892C245.612 397.892 247.68 400.796 247.68 407.528ZM274.75 395.824H273.782L267.666 397.584V398.904C270.086 398.992 270.746 399.432 270.746 402.644V412.676C268.986 414.392 267.534 415.492 264.894 415.492C262.782 415.492 261.594 414.656 261.594 411.928V395.824H260.626L254.51 397.584V398.904C256.93 398.992 257.59 399.432 257.59 402.644V412.676C257.59 416.68 260.142 418.528 263.662 418.528C267.006 418.528 269.03 416.768 271.01 414.656C271.142 416.108 271.494 417.384 271.978 418.572H272.638L277.962 416.988V415.668C275.366 415.58 274.75 415.14 274.75 411.928V395.824ZM287.293 400.84C287.293 398.42 286.853 396.572 286.545 395.824H285.885L280.253 397.584V398.904C282.849 398.992 283.465 399.432 283.465 402.644V413.424C283.465 415.932 282.893 416.328 280.385 416.504V418H291.209V416.504C287.909 416.372 287.469 415.932 287.469 413.424V405.724C287.469 401.456 288.657 400.048 292.265 400.048C292.925 400.048 293.321 400.136 293.629 400.268L294.597 395.912C294.245 395.78 293.761 395.692 293.277 395.692C290.901 395.692 289.009 397.804 287.293 400.84ZM68.26 449.584C67.16 448.836 65.048 447.868 61.66 447.868C55.94 447.868 51.584 451.916 51.584 459.528C51.584 466.92 56.028 470.484 61.44 470.484C64.652 470.484 67.116 469.076 69.052 466.876L67.908 465.644C65.972 467.228 64.696 468.064 62.056 468.064C57.964 468.064 55.94 465.688 55.94 458.648C55.94 452.092 58.228 449.892 61.572 449.892C63.992 449.892 64.828 451.036 65.268 453.632H68.26V449.584ZM92.1912 459.352C92.1912 452.708 88.4952 447.736 81.9832 447.736C76.1752 447.736 71.9512 452.004 71.9512 459.132C71.9512 466.304 76.1752 470.528 82.0712 470.528C87.9232 470.528 92.1912 466.348 92.1912 459.352ZM87.8792 459.528C87.8792 465.204 85.9432 468.372 82.1592 468.372C77.8472 468.372 76.2632 465.336 76.2632 458.692C76.2632 453.236 77.5832 449.892 81.9832 449.892C85.8112 449.892 87.8792 452.796 87.8792 459.528ZM113.937 451.3C113.233 449.056 111.297 447.868 108.921 447.868C105.929 447.868 103.949 449.584 101.969 451.432C101.925 450.112 101.573 448.704 101.221 447.824H100.561L94.9292 449.584V450.904C97.5252 450.992 98.1412 451.432 98.1412 454.644V465.424C98.1412 467.932 97.5692 468.328 95.0612 468.504V470H105.005V468.504C102.453 468.372 102.145 467.888 102.145 465.732V453.5C103.905 452.004 105.401 450.948 107.777 450.948C109.713 450.948 110.461 451.96 110.461 454.556V465.732C110.461 467.888 110.153 468.372 107.601 468.504V470H117.105V468.504C114.993 468.328 114.465 467.888 114.465 465.732V453.104C116.005 451.784 117.545 450.948 119.657 450.948C121.593 450.948 122.341 451.96 122.341 454.556V465.732C122.341 467.888 122.033 468.372 119.481 468.504V470H129.205V468.504C126.873 468.328 126.345 467.932 126.345 465.424V453.764C126.345 449.936 123.969 447.868 120.801 447.868C117.985 447.868 115.917 449.452 113.937 451.3ZM149.448 459.616C149.448 466.304 147.512 468.064 143.86 468.064C142.188 468.064 140.076 467.096 138.712 465.424V453.5C140.472 451.564 142.364 450.684 144.432 450.684C147.996 450.684 149.448 452.84 149.448 459.616ZM138.492 451.476C138.404 449.804 138.008 448.352 137.788 447.824H137.128L131.496 449.584V450.904C134.092 450.992 134.708 451.432 134.708 454.644V474.048C134.708 476.556 134.136 476.952 131.628 477.128V478.624H142.144V477.128C139.152 476.996 138.712 476.468 138.712 474.092V467.712C140.384 469.472 142.54 470.22 144.784 470.22C150.592 470.22 153.76 465.644 153.76 458.78C153.76 451.212 150.064 447.868 145.224 447.868C142.848 447.868 140.12 449.364 138.492 451.476ZM173.839 464.236C173.839 460.232 174.015 456.448 174.015 455.128C174.015 449.98 171.287 447.736 166.359 447.736C163.367 447.736 159.979 448.968 158.131 449.98V453.896H160.903C161.255 451.872 162.311 449.936 166.007 449.936C169.131 449.936 170.011 451.608 170.011 455.392V457.328C169.439 457.284 168.999 457.284 168.471 457.284C161.563 457.284 156.943 459.088 156.943 464.368C156.943 468.416 159.803 470.66 164.027 470.66C167.327 470.66 169.307 468.46 170.055 467.14C170.275 468.988 170.935 470.264 174.059 470.264C175.203 470.264 176.435 470.044 177.095 469.78V468.328C174.235 468.108 173.839 467.536 173.839 464.236ZM169.923 459.44L169.791 464.94C168.779 466.7 167.063 468.152 164.995 468.152C162.443 468.152 161.211 467.184 161.211 464.06C161.211 460.716 163.367 459.352 168.383 459.352C168.955 459.352 169.307 459.396 169.923 459.44ZM199.523 453.764C199.523 449.936 197.103 447.868 193.583 447.868C190.239 447.868 188.039 449.584 186.059 451.652C186.015 450.112 185.619 448.528 185.311 447.824H184.651L179.019 449.584V450.904C181.615 450.992 182.231 451.432 182.231 454.644V465.424C182.231 467.932 181.659 468.328 179.151 468.504V470H189.315V468.504C186.543 468.372 186.235 467.888 186.235 465.732V453.72C187.995 452.004 189.667 450.948 192.307 450.948C194.419 450.948 195.519 451.96 195.519 454.556V465.732C195.519 467.888 195.211 468.372 192.439 468.504V470H202.383V468.504C200.051 468.328 199.523 467.932 199.523 465.424V453.764ZM207.718 479.372C212.074 478.492 214.142 476.028 215.99 470.704L222.15 452.972C222.986 450.596 223.602 450.112 225.362 449.892V448.396H217.09V449.892C219.466 449.98 219.994 450.42 219.862 451.476C219.818 451.74 219.73 452.092 219.598 452.488L216.43 462.3C215.638 464.72 215.286 466.48 215.154 467.184H215.022C214.846 466.216 214.406 464.016 213.482 461.376L210.314 452.488C210.138 451.96 210.006 451.564 210.006 451.256C210.006 450.376 210.666 449.98 212.822 449.892V448.396H203.054V449.892C204.77 450.112 205.43 450.728 206.266 452.972L209.786 462.564C210.886 465.512 211.502 467.844 212.074 470.132L213.658 469.912C212.294 474.576 210.006 475.5 206.662 476.336L207.718 479.372ZM69.096 511.616C69.096 518.304 67.16 520.064 63.508 520.064C61.836 520.064 59.724 519.096 58.36 517.424V505.5C60.12 503.564 62.012 502.684 64.08 502.684C67.644 502.684 69.096 504.84 69.096 511.616ZM58.14 503.476C58.052 501.804 57.656 500.352 57.436 499.824H56.776L51.144 501.584V502.904C53.74 502.992 54.356 503.432 54.356 506.644V526.048C54.356 528.556 53.784 528.952 51.276 529.128V530.624H61.792V529.128C58.8 528.996 58.36 528.468 58.36 526.092V519.712C60.032 521.472 62.188 522.22 64.432 522.22C70.24 522.22 73.408 517.644 73.408 510.78C73.408 503.212 69.712 499.868 64.872 499.868C62.496 499.868 59.768 501.364 58.14 503.476ZM83.1918 504.84C83.1918 502.42 82.7518 500.572 82.4438 499.824H81.7838L76.1518 501.584V502.904C78.7478 502.992 79.3638 503.432 79.3638 506.644V517.424C79.3638 519.932 78.7918 520.328 76.2838 520.504V522H87.1078V520.504C83.8078 520.372 83.3678 519.932 83.3678 517.424V509.724C83.3678 505.456 84.5558 504.048 88.1638 504.048C88.8238 504.048 89.2198 504.136 89.5278 504.268L90.4958 499.912C90.1438 499.78 89.6598 499.692 89.1758 499.692C86.7998 499.692 84.9078 501.804 83.1918 504.84ZM112.859 511.352C112.859 504.708 109.163 499.736 102.651 499.736C96.8432 499.736 92.6192 504.004 92.6192 511.132C92.6192 518.304 96.8432 522.528 102.739 522.528C108.591 522.528 112.859 518.348 112.859 511.352ZM108.547 511.528C108.547 517.204 106.611 520.372 102.827 520.372C98.5152 520.372 96.9312 517.336 96.9312 510.692C96.9312 505.236 98.2512 501.892 102.651 501.892C106.479 501.892 108.547 504.796 108.547 511.528ZM127.169 522.22L133.505 504.972C134.385 502.596 134.957 502.112 136.717 501.892V500.396H128.445V501.892C130.557 501.98 131.261 502.332 131.261 503.212C131.261 503.476 131.129 503.96 130.953 504.488L127.477 514.344C126.993 515.664 126.553 517.556 126.421 518.128H126.245C126.025 516.896 125.497 515.048 125.233 514.3L121.669 504.488C121.449 503.872 121.361 503.52 121.361 503.168C121.361 502.332 122.065 501.98 124.177 501.892V500.396H114.409V501.892C116.125 502.112 116.741 502.64 117.621 504.972L124.133 522.22H127.169ZM147.678 522V520.504C144.906 520.372 144.598 519.932 144.598 517.424V499.824H143.938L137.382 501.584V502.904C139.978 502.992 140.594 503.432 140.594 506.644V517.424C140.594 519.932 140.022 520.328 137.514 520.504V522H147.678ZM145.038 493.664C145.038 492.124 143.85 490.892 142.31 490.892C140.77 490.892 139.582 492.124 139.582 493.664C139.582 495.204 140.77 496.436 142.31 496.436C143.85 496.436 145.038 495.204 145.038 493.664ZM165.036 518.744C165.168 520.504 165.74 522.044 166.004 522.572H166.664L172.252 520.988V519.668C169.436 519.58 168.776 519.14 168.776 515.928V489.88H167.852L161.428 491.156V492.564C164.024 492.652 164.772 493.092 164.772 496.304V502.508C163.144 500.748 160.988 499.868 158.788 499.868C153.156 499.868 149.768 504.532 149.768 511.396C149.768 519.404 153.948 522.44 158.436 522.44C160.768 522.44 163.364 520.9 165.036 518.744ZM154.08 510.868C154.08 504.004 156.104 502.376 159.448 502.376C161.296 502.376 163.408 503.212 164.772 504.884V516.808C163.012 518.744 161.12 519.976 159.14 519.976C155.664 519.976 154.08 517.688 154.08 510.868ZM185.864 519.844C181.244 519.844 179.044 517.776 178.956 511.396H192.992V510.208C192.992 503.52 189.736 499.692 184.192 499.692C178.78 499.692 174.732 503.872 174.732 511.044C174.732 518.26 178.516 522.484 184.808 522.484C187.932 522.484 190.528 521.12 192.64 519.492L191.716 517.996C190.176 519.008 187.756 519.844 185.864 519.844ZM184.104 501.804C187.448 501.804 188.812 503.872 188.812 509.24H179C179.308 503.608 181.112 501.804 184.104 501.804ZM202.876 522.528C208.024 522.528 211.28 519.668 211.28 515.268C211.28 512.1 209.388 510.252 205.252 509.284L202.656 508.668C199.972 508.052 199.136 507.04 199.136 505.192C199.136 503.08 200.588 501.804 203.184 501.804C205.648 501.804 206.88 502.948 207.32 505.28H210.136V501.32C209.08 500.792 206.968 499.78 203.536 499.78C199.312 499.78 195.836 501.98 195.836 506.116C195.836 509.68 198.124 511.44 201.424 512.232L204.02 512.848C206.528 513.464 207.804 514.3 207.804 516.676C207.804 519.492 205.78 520.504 203.272 520.504C200.192 520.504 198.872 519.404 198.564 516.412H195.616V520.68C196.672 521.34 198.828 522.528 202.876 522.528ZM227.44 531.372C231.796 530.492 233.864 528.028 235.712 522.704L241.872 504.972C242.708 502.596 243.324 502.112 245.084 501.892V500.396H236.812V501.892C239.188 501.98 239.716 502.42 239.584 503.476C239.54 503.74 239.452 504.092 239.32 504.488L236.152 514.3C235.36 516.72 235.008 518.48 234.876 519.184H234.744C234.568 518.216 234.128 516.016 233.204 513.376L230.036 504.488C229.86 503.96 229.728 503.564 229.728 503.256C229.728 502.376 230.388 501.98 232.544 501.892V500.396H222.776V501.892C224.492 502.112 225.152 502.728 225.988 504.972L229.508 514.564C230.608 517.512 231.224 519.844 231.796 522.132L233.38 521.912C232.016 526.576 229.728 527.5 226.384 528.336L227.44 531.372ZM266.859 511.352C266.859 504.708 263.163 499.736 256.651 499.736C250.843 499.736 246.619 504.004 246.619 511.132C246.619 518.304 250.843 522.528 256.739 522.528C262.591 522.528 266.859 518.348 266.859 511.352ZM262.547 511.528C262.547 517.204 260.611 520.372 256.827 520.372C252.515 520.372 250.931 517.336 250.931 510.692C250.931 505.236 252.251 501.892 256.651 501.892C260.479 501.892 262.547 504.796 262.547 511.528ZM289.617 499.824H288.649L282.533 501.584V502.904C284.953 502.992 285.613 503.432 285.613 506.644V516.676C283.853 518.392 282.401 519.492 279.761 519.492C277.649 519.492 276.461 518.656 276.461 515.928V499.824H275.493L269.377 501.584V502.904C271.797 502.992 272.457 503.432 272.457 506.644V516.676C272.457 520.68 275.009 522.528 278.529 522.528C281.873 522.528 283.897 520.768 285.877 518.656C286.009 520.108 286.361 521.384 286.845 522.572H287.505L292.829 520.988V519.668C290.233 519.58 289.617 519.14 289.617 515.928V499.824ZM306.165 519.36C306.165 517.688 304.713 516.368 303.041 516.368C301.369 516.368 300.049 517.688 300.049 519.36C300.049 521.12 301.369 522.572 303.041 522.572C304.757 522.572 306.165 521.12 306.165 519.36ZM303.261 493.224C305.505 493.224 307.177 494.764 307.177 497.448C307.177 500.968 305.065 502.288 303.481 503.74C301.457 505.588 300.973 507.524 300.973 509.02C300.973 510.736 301.545 511.704 302.029 512.54H303.833C303.613 511.748 303.481 510.78 303.481 510.076C303.481 507.436 304.405 506.38 306.869 504.796C307.925 504.136 311.225 502.068 311.225 497.932C311.225 493.004 307.925 491.2 303.701 491.2C300.049 491.2 297.541 492.52 296.529 493.268V497.228H299.345C299.609 494.808 300.797 493.224 303.261 493.224Z" fill="white"/>
</g>
<defs>
<filter id="filter0_d" x="134" y="643" width="109" height="109" filterUnits="userSpaceOnUse" color-interpolation-filters="sRGB">
<feFlood flood-opacity="0" result="BackgroundImageFix"/>
<feColorMatrix in="SourceAlpha" type="matrix" values="0 0 0 0 0 0 0 0 0 0 0 0 0 0 0 0 0 0 127 0"/>
<feOffset dy="4"/>
<feGaussianBlur stdDeviation="2"/>
<feColorMatrix type="matrix" values="0 0 0 0 0 0 0 0 0 0 0 0 0 0 0 0 0 0 0.25 0"/>
<feBlend mode="normal" in2="BackgroundImageFix" result="effect1_dropShadow"/>
<feBlend mode="normal" in="SourceGraphic" in2="effect1_dropShadow" result="shape"/>
</filter>
<linearGradient id="paint0_linear" x1="188.5" y1="643" x2="188.5" y2="744" gradientUnits="userSpaceOnUse">
<stop stop-color="white"/>
<stop offset="1" stop-color="white" stop-opacity="0"/>
</linearGradient>
<clipPath id="clip0">
<rect width="375" height="812" fill="white"/>
</clipPath>
</defs>
</svg>
