<svg width="203" height="51" viewBox="0 0 203 51" fill="none" xmlns="http://www.w3.org/2000/svg">
<path d="M60.8435 0.722046C53.5661 0.722046 47.9681 3.80096 44.2361 8.65258C41.0638 3.52106 35.4658 0.722046 28.9348 0.722046C22.8703 0.722046 18.2985 2.86795 15.1263 6.41337V2.12155H0.198242V48.9584H15.1263V26.0065C15.1263 18.1692 18.6717 14.1573 24.0832 14.1573C28.5616 14.1573 32.0137 17.5161 32.0137 22.8343V48.9584H46.9418V26.0065C46.9418 18.1692 50.5805 14.1573 56.0852 14.1573C60.4703 14.1573 63.9225 17.5161 63.9225 22.8343V48.9584H78.7572V19.662C78.7572 8.27938 70.8267 0.722046 60.8435 0.722046Z" fill="white"/>
<path d="M132.824 2.12155H117.896V23.8606C117.896 32.9107 114.07 36.9226 108.192 36.9226C103.434 36.9226 100.169 33.1906 100.169 27.6859V2.12155H85.3338V30.8581C85.3338 42.6139 92.6112 50.3579 103.527 50.3579C109.405 50.3579 114.35 48.212 117.896 44.4799V48.9584H132.824V2.12155Z" fill="white"/>
<path d="M190.425 31.4669C191.523 31.0158 192.698 30.7954 193.881 30.8186C195.069 30.7937 196.249 31.0123 197.354 31.4616C198.458 31.9109 199.465 32.5818 200.314 33.4352C201.163 34.2885 201.838 35.3071 202.299 36.4315C202.76 37.5558 202.998 38.7633 203 39.9834C203.01 41.1977 202.778 42.4013 202.319 43.5202C201.859 44.639 201.181 45.6494 200.327 46.489C199.473 47.3286 198.46 47.9798 197.351 48.4024C196.243 48.8249 195.062 49.01 193.881 48.9461C192.705 49.0083 191.53 48.8215 190.427 48.3971C189.325 47.9726 188.319 47.3198 187.473 46.4791C186.627 45.6384 185.958 44.6279 185.509 43.5104C185.059 42.3929 184.838 41.1923 184.86 39.9834C184.85 38.7686 185.078 37.5641 185.529 36.4411C185.98 35.3181 186.646 34.2993 187.486 33.445C188.327 32.5906 189.327 31.918 190.425 31.4669Z" fill="white"/>
<path d="M137.625 36.736C139.211 46.346 148.634 50.3579 159.643 50.3579C171.959 50.3579 180.916 44.9465 180.916 34.5901C180.916 27.6859 176.811 22.3677 167.947 20.5017L156.938 18.2625C153.952 17.6094 153.392 16.3032 153.392 14.997C153.392 13.3176 154.698 11.3583 158.71 11.3583C163.282 11.3583 166.081 13.9707 166.548 16.863L180.17 14.1573C178.304 6.04017 170.56 0.722046 158.897 0.722046C147.048 0.722046 138.744 6.97317 138.744 16.5831C138.744 23.9539 143.689 28.6189 152.366 30.205L161.883 32.071C165.335 32.7241 166.548 33.937 166.548 35.5231C166.548 37.5757 164.402 39.2551 160.483 39.2551C156.471 39.2551 152.832 37.7623 152.179 33.7504L137.625 36.736Z" fill="white"/>
</svg>
