<svg width="203" height="50" viewBox="0 0 203 50" fill="none" xmlns="http://www.w3.org/2000/svg">
<path d="M60.6453 0C53.3679 0 47.7698 3.07891 44.0378 7.93054C40.8656 2.79901 35.2676 0 28.7365 0C22.672 0 18.1003 2.14591 14.9281 5.69132V1.3995H0V48.2363H14.9281V25.2844C14.9281 17.4472 18.4735 13.4353 23.8849 13.4353C28.3633 13.4353 31.8155 16.7941 31.8155 22.1122V48.2363H46.7435V25.2844C46.7435 17.4472 50.3822 13.4353 55.887 13.4353C60.2721 13.4353 63.7242 16.7941 63.7242 22.1122V48.2363H78.559V18.94C78.559 7.55733 70.6284 0 60.6453 0Z" fill="black"/>
<path d="M132.625 1.3995H117.697V23.1385C117.697 32.1887 113.872 36.2006 107.994 36.2006C103.236 36.2006 99.9703 32.4686 99.9703 26.9638V1.3995H85.1355V30.136C85.1355 41.8919 92.413 49.6358 103.329 49.6358C109.207 49.6358 114.152 47.4899 117.697 43.7579V48.2363H132.625V1.3995Z" fill="black"/>
<path d="M190.227 30.7449C191.325 30.2938 192.5 30.0733 193.683 30.0965C194.871 30.0717 196.051 30.2903 197.156 30.7396C198.26 31.1889 199.266 31.8598 200.115 32.7131C200.964 33.5665 201.639 34.5851 202.101 35.7094C202.562 36.8338 202.8 38.0413 202.802 39.2613C202.812 40.4757 202.58 41.6793 202.12 42.7981C201.661 43.917 200.983 44.9273 200.129 45.767C199.274 46.6066 198.262 47.2578 197.153 47.6803C196.045 48.1029 194.864 48.2879 193.683 48.224C192.507 48.2863 191.331 48.0994 190.229 47.675C189.127 47.2506 188.121 46.5977 187.275 45.757C186.429 44.9163 185.76 43.9058 185.31 42.7883C184.861 41.6708 184.64 40.4702 184.662 39.2613C184.652 38.0465 184.879 36.842 185.33 35.719C185.782 34.596 186.447 33.5773 187.288 32.7229C188.129 31.8686 189.128 31.196 190.227 30.7449Z" fill="black"/>
<path d="M137.426 36.014C139.012 45.6239 148.436 49.6358 159.445 49.6358C171.761 49.6358 180.718 44.2244 180.718 33.8681C180.718 26.9638 176.612 21.6457 167.749 19.7797L156.739 17.5405C153.754 16.8874 153.194 15.5812 153.194 14.275C153.194 12.5956 154.5 10.6362 158.512 10.6362C163.084 10.6362 165.883 13.2487 166.349 16.141L179.971 13.4353C178.105 5.31812 170.361 0 158.699 0C146.85 0 138.546 6.25113 138.546 15.8611C138.546 23.2318 143.491 27.8968 152.168 29.4829L161.684 31.349C165.137 32.0021 166.349 33.215 166.349 34.8011C166.349 36.8537 164.203 38.5331 160.285 38.5331C156.273 38.5331 152.634 37.0403 151.981 33.0284L137.426 36.014Z" fill="black"/>
</svg>
