<svg width="256" height="256" viewBox="0 0 256 256" fill="none" xmlns="http://www.w3.org/2000/svg">
<rect width="256" height="256" rx="10" fill="black"/>
<path d="M114.689 103.331C120.425 95.7872 129.03 91 140.216 91C155.56 91 167.75 102.75 167.75 120.449V166H144.948V125.381C144.948 117.112 139.642 111.89 132.902 111.89C124.441 111.89 118.848 118.128 118.848 130.313V166H95.9023V125.381C95.9023 117.112 90.5962 111.89 83.7126 111.89C75.3949 111.89 69.9454 118.128 69.9454 130.313V166H47V93.176H69.9454V99.8491C74.8213 94.3366 81.8483 91 91.1698 91C101.208 91 109.813 95.352 114.689 103.331Z" fill="white"/>
<path d="M193.549 137.157C191.674 137.12 189.812 137.471 188.071 138.188C186.331 138.905 184.748 139.975 183.415 141.333C182.082 142.691 181.027 144.311 180.312 146.097C179.597 147.883 179.237 149.798 179.252 151.729C179.218 153.652 179.568 155.561 180.28 157.337C180.993 159.114 182.053 160.721 183.394 162.058C184.735 163.395 186.328 164.433 188.075 165.107C189.822 165.782 191.685 166.079 193.549 165.98C195.42 166.082 197.292 165.788 199.048 165.116C200.805 164.444 202.41 163.409 203.763 162.074C205.117 160.738 206.191 159.132 206.92 157.353C207.648 155.574 208.016 153.66 207.999 151.729C207.997 149.789 207.619 147.869 206.888 146.082C206.158 144.294 205.088 142.674 203.743 141.317C202.397 139.961 200.802 138.894 199.052 138.179C197.302 137.465 195.431 137.117 193.549 137.157Z" fill="white"/>
</svg>
